<svg xmlns="http://www.w3.org/2000/svg" xml:space="preserve" width="653" height="104" overflow="hidden"><defs><clipPath id="a"><path d="M313 308h653v104H313z"/></clipPath><clipPath id="b"><path d="M314 308h652v104H314z"/></clipPath><clipPath id="c"><path d="M314 308h653v104H314z"/></clipPath><clipPath id="d"><path d="M314 308h653v104H314z"/></clipPath></defs><g clip-path="url(#a)" transform="translate(-313 -308)"><g clip-path="url(#b)"><g clip-path="url(#c)"><g fill="#FD4B00" clip-path="url(#d)"><path d="M856.058 323.586c-1.566-1.98-3.202-3.86-5.587-4.89-.758-.326-1.587-.91-2.325.12-.18.237-.449.059-.638-.07a10.49 10.49 0 0 1-1.297-.86c-.858-.733-1.527-.486-2.255.237a25.075 25.075 0 0 0-3.243 4.097c-4.59 6.998-8.54 14.352-12.462 21.716-.868 1.643-1.746 3.286-2.594 4.949a1.231 1.231 0 0 1-1.727.593c-.748-.376 0-.88.21-1.247a4543.23 4543.23 0 0 1 11.045-18.983c.998-1.713 1.996-3.415 2.993-5.127.26-.456.5-.99 0-1.386-.499-.396-.917 0-1.257.346-.45.446-.863.926-1.237 1.435a6223.614 6223.614 0 0 0-13.23 19.598c-.21.307-.31.87-.769.782-.458-.09-.369-.624-.438-.99-.862-4.627-1.991-9.2-3.382-13.698-1.408-4.514-4.61-7.354-8.542-9.611a9.174 9.174 0 0 0-2.504-.772c-.23-.05-.599-.129-.688 0-.779.93-1.357.198-1.995-.188-2.156-1.356-3.113-1.267-4.99.445-1.156 1.08-1.366 1.09-2.733.169-.798-.545-1.377-.307-1.497.653a9.654 9.654 0 0 0-.06 1.781c.06 1.366 1.107 1.9 2.325 1.208.2-.109.369-.386.619-.198.249.188.1.435.08.673a7.67 7.67 0 0 1-.998 3.246c-.928 1.614-1.766 3.277-2.645 4.95-.179.346-.488.761-.1 1.068 1.178.92.38 2.049.41 3.088a.476.476 0 0 1-.52.525c-.368 0-.408-.317-.378-.614.014-.156.037-.312.07-.465.07-.406 0-.732-.509-.762a.628.628 0 0 0-.708.633c-.03.512.01 1.024.12 1.525a8.302 8.302 0 0 1 .409 3.256c-.28 1.188-.799 2.316-1.148 3.494-.35 1.178 0 2.266-.529 3.454a40.598 40.598 0 0 0-1.427 5.78c-1.357 5.434-2.304 10.957-3.223 16.48a123.2 123.2 0 0 0-1.277 10.085 23.525 23.525 0 0 1-.199 3.96c-.998 3.79-.619 7.76-.529 11.659a18.787 18.787 0 0 1-1.237 7.997c-.36.832-.07 1.238.708 1.524 1.936.733 3.852 1.515 5.787 2.247.71.325 1.55.17 2.096-.386 1.217-1.138 2.474-2.237 3.72-3.335a4.606 4.606 0 0 0 1.887-2.91 1.387 1.387 0 0 1 .848-1.218c1.367-.336 1.337-1.375 1.417-2.395.07-.782.17-1.564.239-2.355.379-4.237.778-8.473 1.118-12.719.19-2.464.638-4.949.249-7.423-.26-1.722-.5-3.415.499-5.038a5.02 5.02 0 0 0 .599-2.395c.341-4.72.974-9.413 1.896-14.055.269-1.435.508-2.88.768-4.315.07-.367.219-.713.678-.663.46.05.39.425.419.742.05.544.07 1.099.16 1.643a37.77 37.77 0 0 0 3.991 10.887 8.163 8.163 0 0 1 .998 3.356 21.8 21.8 0 0 0 .728 4.305 3.958 3.958 0 0 0 1.996 2.97c.6.295 1.142.697 1.596 1.187 1.067 1.07 2.155 2.118 3.173 3.227a1.604 1.604 0 0 0 2.414.198 11.23 11.23 0 0 0 2.734-2.791 9.311 9.311 0 0 0 1.497-4.197c.13-.99.887-.92 1.516-.91.799 0 .569.702.569 1.187a3.603 3.603 0 0 1-1.677 3.078c-.508.376-.878.772-.238 1.435.638.664.409 1.218-.23 1.732-.638.515-.998.99-.48 1.594.52.604 1.119 0 1.598-.277a8.514 8.514 0 0 0 3.87-5.493 39.61 39.61 0 0 1 1.997-6.434c2.154-5.315 4.35-10.61 7.542-15.42a14.198 14.198 0 0 1 2.375-2.97c-.64 4.039-1.208 7.77-1.817 11.492-1.536 9.333-3.123 18.657-4.629 28-.34 1.98-.998 4.098-.11 6.166 1.237 2.772.868 5.533-.12 8.275l-.269.782a1.194 1.194 0 0 0 .6 1.593c1.19.636 2.33 1.36 3.412 2.168a5.388 5.388 0 0 0 3.89 1.108c.879 0 1.258-.297 1.398-1.197.29-1.871.937-3.534 3.093-4.058.419-.1.478-.495.558-.842a2.814 2.814 0 0 1 2.265-2.187c.572-.042 1.01-.52.998-1.089.4-4.513.818-9.026 1.227-13.54.3-3.217.668-6.433.878-9.65.09-1.524.668-3.058.16-4.563-.18-.554-.15-.673.329-.99 1.147-.702 1.157-.99.31-1.87-1.048-1.089-1.048-1.089.08-2.158.141-.14.291-.272.448-.396.529-.406.509-.792.09-1.296-1.128-1.356-1.107-1.366.18-2.643l.339-.337c.588-.643.778-1.296 0-1.98a1.457 1.457 0 0 1-.419-1.395 66.22 66.22 0 0 1 1.367-7.75c.787-3.484 1.137-6.928-.23-10.333a2.395 2.395 0 0 1-.12-.465c-.09-.425.09-.752.54-.703 1.267.139 1.416-.663 1.475-1.603 0-.713.41-1.505.18-2.098a3.82 3.82 0 0 1 .27-3.158 4.102 4.102 0 0 0-.928-4.483c-.689-.782-1.247-1.713-1.906-2.554Zm-16.442 78.993a.54.54 0 0 1-.77.347c-.308-.12-.338-.396-.308-.683.229-2.227.449-4.444.679-6.661 0-.337.1-.634.499-.693a.599.599 0 0 1 .714.45l.003.015c.24.782.45 1.584.709 2.474-.499 1.544-.998 3.158-1.526 4.751Zm1.257-61.256a173.635 173.635 0 0 0-10.516 20.844 20.901 20.901 0 0 0-1.118 3.623c-.08.376-.17.811-.699.811-.528 0-.538-.455-.698-.802a4.717 4.717 0 0 1 .289-4.176c3.801-8.582 7.822-17.034 13.26-24.744.57-.792 1.148-1.574 1.727-2.366l.29.149a23.647 23.647 0 0 1-2.535 6.66Zm6.165 1.445c-.202.243-.42.474-.648.693-.28.287-.589.663-.42 1.039 1.298 2.84.32 5.651 0 8.462-.578 4.444-1.206 8.908-1.825 13.322a2.248 2.248 0 0 1-.09.584c-.2.476 0 1.337-.758 1.277-.758-.06-.23-.9-.42-1.286.43-4.543.849-9.007 1.258-13.471.3-3.177.629-6.344.868-9.522a2.445 2.445 0 0 1 1.307-1.98.602.602 0 0 1 .858.1.61.61 0 0 1-.13.782ZM525.124 330.247a40.533 40.533 0 0 0-3.113-4.305 15.529 15.529 0 0 0-4.47-3.96c-.928-.494-1.996-1.425-3.092-.217-.18.198-.45 0-.65-.109-.399-.267-.827-.485-1.197-.782a1.434 1.434 0 0 0-2.195.178 26.325 26.325 0 0 0-3.302 4.197c-5.13 7.78-9.439 16.024-13.809 24.23-.45.84-.888 1.682-1.367 2.503a1.214 1.214 0 0 1-1.696.367c-.549-.307.08-.753.259-1.07a24818.1 24818.1 0 0 0 10.726-18.409c1.118-1.91 2.235-3.82 3.332-5.75.24-.426.659-.99.11-1.386-.548-.396-1.067 0-1.466.396-.338.335-.646.7-.919 1.088-4.47 6.599-8.932 13.197-13.389 19.796-.22.316-.31.87-.758.821-.45-.05-.31-.633-.41-.99-.14-.534-.279-1.068-.388-1.603a99.936 99.936 0 0 0-2.994-11.936 24.014 24.014 0 0 0-2.055-4.524c-.55-.94-1.676-1.059-2.255-1.86a11.071 11.071 0 0 0-6.875-4.177c-.28-.06-.599-.178-.778.089-.528.811-.998.277-1.477 0a5.77 5.77 0 0 0-2.055-1.158 3.345 3.345 0 0 0-3.053 1.217c-1.357 1.376-1.397 1.327-2.913.267-.47-.326-1.098-.514-1.277.14a5.174 5.174 0 0 0-.14 2.909 1.379 1.379 0 0 0 1.995.792c.29-.1.439-.475.918-.386a6.057 6.057 0 0 1-.589 3.286c-.997 1.85-1.995 3.692-2.993 5.533-.239.445-.459.85 0 1.286.998.99.31 2.089.21 3.148a.418.418 0 0 1-.53.356.446.446 0 0 1-.353-.523l.005-.021c0-.198.1-.386.12-.584.05-.357.08-.753-.43-.812-.509-.06-.728.287-.718.732.01.446.06.99.11 1.525.11 1.098.628 2.167.34 3.276-.29 1.108-.759 2.326-1.158 3.484-.4 1.158-.07 2.177-.45 3.355a110.535 110.535 0 0 0-2.803 11.254 194.71 194.71 0 0 0-3.313 21.606c0 .357-.17.752.12.99.648.604.39 1.069-.12 1.594a1.246 1.246 0 0 0-.31.742c-.158 2.286-.537 4.553-.468 6.85.14 4.403.678 8.838-1.167 13.074a1.48 1.48 0 0 0-.06.227.818.818 0 0 0 .589 1.109c1.995.792 4.07 1.613 6.106 2.405a1.636 1.636 0 0 0 1.866-.346c1.456-1.356 2.993-2.663 4.43-3.96a3.197 3.197 0 0 0 1.137-1.89 2.31 2.31 0 0 1 1.557-1.98c.488-.176.798-.653.758-1.167.53-5.691.908-11.392 1.546-17.074.351-2.223.398-4.484.14-6.72-.17-1.089-.668-2.277 0-3.375a14.974 14.974 0 0 0 1.427-6.651c.29-5.226 1.607-10.274 2.404-15.411 0-.327.16-.663.55-.653.548 0 .428.475.458.801.102 1.218.316 2.424.638 3.603a52.699 52.699 0 0 0 3.992 9.63c.362.572.568 1.227.598 1.9 0 1.423.18 2.84.54 4.217.368 1.673.857 3.316 2.743 4.019.28.099.49.396.718.623 1.072 1.102 2.142 2.207 3.213 3.316.998.99 1.607.99 2.804.178a9.55 9.55 0 0 0 3.991-6.73c.12-.881.579-.99 1.296-.99.889 0 .66.683.72 1.207.189 1.426-.67 2.277-1.647 3.079-.53.435-.768.85-.17 1.455.598.603.42 1.128-.18 1.623-.598.495-1.186.851-.608 1.534.579.683 1.188.099 1.706-.238a8.924 8.924 0 0 0 3.313-3.959c.658-1.435.639-3.018 1.167-4.454a113.543 113.543 0 0 1 7.364-16.46 28.354 28.354 0 0 1 3.582-5.067l.289.158c0 .188 0 .376-.07.565-.739 4.384-1.497 8.779-2.215 13.173-1.357 8.285-2.724 16.569-3.991 24.863-.27 1.742-1.078 3.544-.48 5.256a14.469 14.469 0 0 1 0 10.472c-.299.752 0 1.257.72 1.662 1.226.743 2.454 1.485 3.601 2.336.926.7 2.07 1.05 3.233.99 1.048 0 1.567-.287 1.716-1.425.24-1.792.908-3.385 2.993-3.88a.723.723 0 0 0 .599-.644 2.903 2.903 0 0 1 2.554-2.474c.658-.129.788-.455.848-1.05.29-3.255.629-6.512.938-9.758.439-4.672.918-9.344 1.297-14.025.1-1.247.609-2.544.21-3.741-.25-.763-.12-.99.46-1.366.578-.376.847-.93.158-1.614-1.177-1.168-1.177-1.247.1-2.326.809-.683 1.078-1.217.11-1.92-.968-.702-.848-1.247 0-1.88.246-.2.476-.418.689-.654a1.359 1.359 0 0 0 .11-2.167 1.359 1.359 0 0 1-.37-1.178c.292-2.744.734-5.47 1.327-8.165.559-2.9 1.406-5.79.15-8.72-.18-.426-.24-.92-.41-1.356-.359-.881-.19-1.376.87-1.336.358 0 .906 0 .896-.406 0-1.406.998-2.85-.09-4.217-.368-.485-.11-.762.19-1.118a4.354 4.354 0 0 0 .13-4.375Zm-19.047 75.282a.54.54 0 0 1-.689.316.465.465 0 0 1-.339-.554c.22-2.346.46-4.691.699-7.037a.476.476 0 0 1 .449-.475.56.56 0 0 1 .649.396c.259.821.489 1.662.738 2.563-.49 1.564-1.018 3.187-1.507 4.79Zm1.996-62.662c-4.06 7.403-8.341 14.747-11.385 22.665a33.502 33.502 0 0 0-.997 3.276c-.11.396-.16.812-.669.842-.509.03-.599-.426-.739-.792a4.91 4.91 0 0 1 .15-3.96 161.888 161.888 0 0 1 11.973-22.902 29.248 29.248 0 0 1 3.443-4.494 24.828 24.828 0 0 1-1.746 5.365Zm5.298 2.969c-1.587 1.207-.729 2.573-.29 3.9.09.257.11.534.06.801l-2.584 17.965c-.1.702-.19 1.405-.29 2.108-.07.396-.279.702-.728.574-.448-.129-.34-.465-.279-.792.06-.327.08-.624.12-.99h-.06c.412-4.236.814-8.472 1.207-12.708.29-3.098.569-6.196.808-9.304a2.963 2.963 0 0 1 1.118-2.484c.32-.228.648-.396.998-.11a.58.58 0 0 1-.05 1ZM449.335 330.386c-.838-.426-1.486-1.257-2.454-1.346-1.447-.129-1.827.069-1.746 1.346a7.161 7.161 0 0 1-.2 1.643 2.886 2.886 0 0 1-.788 1.692c-.2.188-.4.465-.699.297-.3-.168-.1-.425-.06-.653.25-1.158.47-2.316.729-3.474.101-.327.076-.68-.07-.99-.558-1.049-1.128-2.088-1.676-3.137a1.05 1.05 0 0 0-1.098-.545c-2.152-.079-4.049 1.393-4.49 3.484-.07.307-.1.673-.508.683-.41.01-.45-.445-.51-.772a5.103 5.103 0 0 0-.738-2.346c-.38-.485-.818-.92-1.516-.673a4.492 4.492 0 0 0-2.166 3.276v13.263c0 3.83-.07 7.661 0 11.491a30.74 30.74 0 0 1-.947 6.929c-.114.5-.37.957-.74 1.316l-22.777 25.308c-1.317 1.465-1.896 1.426-2.994-.277a7.35 7.35 0 0 1-.678-1.376 28.583 28.583 0 0 1-1.567-9.897 95.159 95.159 0 0 1 1.068-11.412 242.527 242.527 0 0 1 6.386-28.872c.558-1.979 1.636-3.959.369-6.156a1.6 1.6 0 0 0-1.676-.91c-.868 0-.998.623-1.128 1.266-.21 1.05-.389 2.099-.658 3.128-.27 1.03-.878.99-1.587.386a1.447 1.447 0 0 1-.369-1.524c.19-.99.4-1.98.609-2.9a5.634 5.634 0 0 0-1.996-4.058 1.236 1.236 0 0 0-.998.08 5.685 5.685 0 0 0-2.713 2.275c-2.714 3.96-3.792 8.503-4.71 13.065a179.755 179.755 0 0 0-3.173 23.418c0 .446-.06.99-.628.99-.569 0-.34-.614-.37-.99-.057-2.58.198-5.16.759-7.68.728-4.118 1.397-8.245 2.095-12.363 0-.286.4-.603 0-.84-.399-.238-.469.197-.688.336-.22.138-.48.386-.739.148-.26-.237 0-.505.12-.722.539-.881.998-1.802 1.626-2.623a2.853 2.853 0 0 0 .36-3.484c-.16-.267-.47-.752-.1-.99 1.247-.723.618-1.336 0-2.069a1.2 1.2 0 0 1-.142-1.702c.24-.281.598-.438.97-.426.409-.059.878-.128.908-.593.06-1.06 0-2.128 0-3.188a.566.566 0 0 0-.45-.504.47.47 0 0 0-.518.198 14.934 14.934 0 0 0-2.923 5.562 151.133 151.133 0 0 0-3.363 19.202 747.345 747.345 0 0 0-1.766 15.618c-.24 2.356-.768 4.721-.529 7.067a95.796 95.796 0 0 0 2.265 12.56c1.098 4.474 2.445 8.849 5.169 12.66a9.448 9.448 0 0 0 5.278 4.047c.708.178 1.576.565 2.125-.109.36-.433.961-.586 1.487-.376 1.835.357 3.681.693 5.497 1.158a3.94 3.94 0 0 0 2.864-.316 2703.738 2703.738 0 0 1 16.244-7.77c1.236-.594 1.406-.485 1.626.802.22 1.286.878 2.543 2.483 2.79.52.08.62.387.55.852-.13.99-.26 1.98-.359 2.97-.21 2.117-.39 4.235-.58 6.354 0 .217-.07.504.19.633s.42-.119.599-.267c1.716-1.396 3.083-2.97 2.554-5.414a13.515 13.515 0 0 1 0-1.98c0-.801.27-1.158 1.108-1.128.838.03.898.663.778 1.247a56.36 56.36 0 0 0-.749 6.463c-.239 2.702-.877 2.405 2.086 2.425h.839c.837.079 1.196-.267 1.316-1.108a3.33 3.33 0 0 1 3.133-3.069c.848-.109 1.117-.524 1.327-1.247a36.152 36.152 0 0 0 1.108-7.918c.328-4.682.698-9.363.998-14.045.269-3.77.518-7.552.788-11.323.379-5.305.778-10.61 1.167-15.925.28-3.959.549-7.918.838-11.798.33-4.484.699-8.967.998-13.45.07-.654.28-1.495-.08-1.693Zm-58.508 36.463c-.22 2.306-.49 4.602-.758 6.928 0 .396-.13.861-.64.861-.508 0-.478-.524-.488-.89V367.511a1.475 1.475 0 0 1 .26-1.119c.359-.376.718-.87 1.287-.722.568.148.339.762.339 1.178Zm3.372 27.179c0 .356 0 .742-.449.86-.449.12-.678-.197-.798-.534a9.6 9.6 0 0 1-.898-3.276c.09-.425-.2-.99.519-1.138.718-.149.748.465.898.9.476.997.721 2.085.718 3.188Zm15.805 7.423c-.12.01-.24.01-.36 0-3.133-.535-6.166-1.277-8.74-3.257a3.524 3.524 0 0 1-1.327-1.92c-.08-.326-.25-.772.12-.99.369-.217.529.248.748.446a17.981 17.981 0 0 0 6.645 4.088c.95.308 1.936.494 2.934.554.449 0 1.107-.129 1.097.564-.01.693-.708.445-1.127.515Zm13.2-28-6.166 6.928c-.102.12-.212.231-.33.336-.239.198-.518.515-.807.188-.29-.326.09-.495.269-.693l3.312-3.79 3.073-3.455c.23-.247.469-.445.829-.316.08 0 .12.178.19.306-.13.179-.24.347-.37.495ZM781.666 326.575a3.578 3.578 0 0 0-2.575-.336c-.748.247-.398 1.098-.438 1.692a5.903 5.903 0 0 1-.73 2.603c-.158.267-.407.574-.747.475-.339-.099-.21-.524-.16-.801.19-.99.41-1.93.58-2.9.089-.485.309-.99 0-1.495a86.363 86.363 0 0 1-1.577-2.97 1.17 1.17 0 0 0-1.467-.643c-2.105.377-3.832 1.139-4.24 3.504 0 .337-.22.624-.63.564-.408-.059-.358-.356-.398-.633a5.034 5.034 0 0 0-.758-2.465c-.38-.514-.998-.99-1.507-.534-.997.841-2.146 1.584-2.135 3.296.09 8.561.05 17.133 0 25.734.04.47.04.944 0 1.415-.5 2.97-1.258 5.553-3.482 7.918-7.324 7.8-14.378 15.836-21.512 23.824-.578.653-1.057.554-1.617.079a5.416 5.416 0 0 1-1.605-2.722 30.437 30.437 0 0 1-1.387-10.145c.266-5.393.89-10.762 1.865-16.074a245.309 245.309 0 0 1 6.226-26.02 5.633 5.633 0 0 0-.479-3.96c-.34-.801-.998-.574-1.646-.594-.649-.02-.849.317-.948.842-.209 1.049-.459 2.088-.659 3.127-.12.594-.169 1.337-.998 1.159a1.349 1.349 0 0 1-1.157-1.555c.101-.671.258-1.333.47-1.979.6-1.398.34-3.013-.67-4.157-1.286-1.534-1.845-1.722-3.412-.396a8.456 8.456 0 0 0-1.227 1.297 17.461 17.461 0 0 0-2.583 5.186c-2.615 7.512-3.622 15.341-4.57 23.17-.35 2.86-.59 5.731-.888 8.592 0 .366-.09.762-.58.722-.488-.04-.418-.435-.418-.742-.056-1.3-.023-2.604.1-3.9.827-4.82 1.676-9.64 2.494-14.46.238-.936.365-1.896.379-2.86-.17.069-.337.148-.5.237-.278.188-.537.633-.896.297-.36-.337.07-.634.239-.92.387-.735.823-1.443 1.307-2.119a3.178 3.178 0 0 0 .418-3.83c-.149-.268-.358-.663 0-.861 1.208-.683.67-1.287 0-1.91a1.712 1.712 0 0 1-.328-1.772c.11-.644.707-.515 1.167-.555.459-.04.858-.069.878-.584.05-.99 0-2.058 0-3.078a.476.476 0 0 0-.399-.514.591.591 0 0 0-.619.257 15.318 15.318 0 0 0-2.863 5.632c-.52 2.227-1.098 4.434-1.487 6.69-1.098 6.454-2.065 12.927-2.724 19.43-.369 3.612-.847 7.205-1.157 10.808a23.518 23.518 0 0 0-.25 5.434 104.631 104.631 0 0 0 3.084 15.163 33.504 33.504 0 0 0 3.63 8.482c1.647 2.534 3.643 4.731 6.915 5.186.43.06.939.248 1.138-.306.2-.555.659-.545 1.158-.446 1.995.426 3.99.792 5.986 1.267.96.243 1.977.112 2.843-.366 5.348-2.653 10.736-5.236 16.114-7.82 1.208-.583 1.567-.375 1.706.892a2.67 2.67 0 0 0 2.305 2.632c.639.149.728.406.659.99-.35 2.97-.659 5.939-.998 8.908 0 .337-.21.792.15.99.359.198.589-.277.838-.495.44-.396.818-.871 1.287-1.237a2.663 2.663 0 0 0 .998-2.485c-.08-1.217 0-2.444 0-3.672 0-.554.139-.89.788-.99.798 0 1.217.179 1.117 1.05-.229 2.078-.538 4.147-.658 6.225-.19 3.276-.908 2.712 2.345 2.752.159-.015.32-.015.478 0 .938.129 1.288-.356 1.408-1.188a3.22 3.22 0 0 1 2.993-2.9c.868-.119 1.167-.534 1.416-1.306a34.757 34.757 0 0 0 1.118-8.295c.359-5.542.798-11.085 1.207-16.628.19-2.672.34-5.344.549-8.017.339-4.563.718-9.125 1.058-13.688.289-3.89.529-7.79.808-11.68.369-5.225.778-10.451 1.137-15.687.06-1.079.33-2.188-1.277-2.83Zm-57.26 37.255c-.25 2.306-.53 4.612-.809 6.928 0 .426 0 .99-.65.99-.647 0-.517-.594-.527-.99v-6.275c-.03-.476.16-.939.519-1.257.328-.307.668-.633 1.147-.475.479.158.359.693.32 1.079Zm3.371 27.367c0 .336-.12.633-.509.693a.619.619 0 0 1-.748-.436c-.358-1.108-.998-2.128-.998-3.385.07-.406-.169-.99.49-1.128.658-.139.757.416.918.87a8.009 8.009 0 0 1 .847 3.386Zm15.964 7.334h-.479c-3.053-.594-6.095-1.217-8.65-3.138a3.684 3.684 0 0 1-1.556-2.147c-.07-.337-.27-.782.06-.99.329-.208.578.247.818.475a16.369 16.369 0 0 0 7.503 4.404c.768.188 1.566.258 2.355.377.369.059.917-.1.927.475.01.574-.52.504-.948.544Zm13.091-28.13-6.116 6.81a4.145 4.145 0 0 1-.639.535c-.15.099-.349.257-.528.09-.18-.17-.06-.407.109-.595l6.575-7.364a.621.621 0 0 1 .73-.247c.089 0 .138.168.228.297-.1.158-.19.326-.329.475ZM382.635 356.902c.649-.505.51-.99.17-1.653-.918-1.663-1.746-3.375-2.694-5.018a34.991 34.991 0 0 0-3.382-5.563 65.775 65.775 0 0 0-9.978-9.809 37.432 37.432 0 0 0-15.964-7.373 29.706 29.706 0 0 0-12.272.435 4.67 4.67 0 0 1-3.911-.703 5.662 5.662 0 0 0-6.985.584c-.359.327-.638.644-1.227.307-1.417-.811-1.646-.692-2.155.851a172.838 172.838 0 0 0-5.987 26.516c-1.357 8.364-2.225 16.826-2.993 25.23-.469 4.255-.758 8.58-1.257 12.827a5.992 5.992 0 0 0 1.996 5.216 23.68 23.68 0 0 0 3.661 2.85c.818.515.998 1.05.29 1.782-.26.247-.629.633-.31.91 1.218.99.669 2.416.808 3.524v1.198c0 2.355 0 2.365 2.395 2.157.679-.059.908-.336.858-.989-.05-.654 0-1.495 0-2.247 0-.446.16-.743.679-.792a3.626 3.626 0 0 1 3.352 1.979c.24.703.589.812 1.237.693.998-.168 1.996-.217 2.993-.386 2.585-.435 5.249-.455 7.763-1.286a117.472 117.472 0 0 0 19.706-8.483 59.827 59.827 0 0 0 15.126-11.293 30.75 30.75 0 0 0 8.66-18.875c.42-3.77.14-7.584-.828-11.253a1.073 1.073 0 0 1 .25-1.336Zm-58.428-9.68a4791.551 4791.551 0 0 1-3.532 19.063c0 .158 0 .316-.06.475-.1.425-.33.752-.818.663-.489-.09-.45-.515-.4-.861.21-1.277.45-2.564.68-3.84.807-4.613 1.596-9.235 2.424-13.857l1.995-10.69c.09-.485-.06-1.346.729-1.267.788.08.24.99.608 1.445-.548 2.98-1.077 5.93-1.626 8.869Zm45.787 24.744c.16.069.22.217.15.603-.55.99-1.188 2.128-1.876 3.267a.432.432 0 0 1-.639 0c-.18-.149-.12-.357 0-.525.559-.99 1.118-2.068 1.696-3.088a.561.561 0 0 1 .669-.218Zm-6.925-28.98c.12-.278.38-.387.868-.357 1.14.577 2.223 1.26 3.233 2.04a.413.413 0 0 1 0 .543.391.391 0 0 1-.529.11c-1.077-.486-2.155-.99-3.222-1.466a.642.642 0 0 1-.35-.87Zm-27.937 56.525a6.246 6.246 0 0 1-2.145 1.98c-1.447.663-2.285-.07-2.674-2.435.789.702 1.417.336 2.046.118.628-.217 1.267-.465 1.905-.663.3-.141.66-.06.868.198a.63.63 0 0 1 .04.802Zm12.512-3.296c-2.325.88-4.49 2.267-7.293 2.088-.47-.168-1.557.495-1.697-.425-.14-.92.998-.743 1.647-.93 1.995-.585 3.99-1.11 5.986-1.654.347-.09.7-.149 1.058-.178.31 0 .678 0 .768.376.09.377-.13.565-.469.723Zm14.458-18.677c-2.465 1.04-4.92 2.059-7.384 3.078a174.697 174.697 0 0 1-18.957 6.86c-1.108.306-2.255.484-3.372.791-.928.257-1.248 0-1.138-.99.28-2.514.47-5.028.768-7.532.599-4.88 1.178-9.769 1.896-14.638.838-5.652 1.836-11.284 3.043-16.826.056-.15.093-.307.11-.466 0-1.583.679-2.464 2.445-2.405a2.099 2.099 0 0 0 1.915-1.059c.46-.9 1.158-.99 1.996-.93 2.514 0 4.988-.376 7.393-.198a24.38 24.38 0 0 1 11.334 1.9c4.76 1.98 6.985 5.602 7.274 10.67.37 7.76-2.474 14.163-7.852 19.637-.2.208-.609.386-.41.762.2.376.51.139.779.158.27.02.778-.069.878.406.1.475-.37.654-.718.782Zm8.241 6.572c-1.996 2.336-3.851 4.741-6.655 6.137l-.23-.277c1.208-1.178 2.415-2.346 3.612-3.534l2.604-2.573c.17-.169.33-.396.59-.268a.325.325 0 0 1 .079.515Zm3.622-19.726a10.865 10.865 0 0 0-.36 3.128c.06.811-.169 1.227-1.107 1.227-1.097 0-.838-.673-.798-1.287v-.207l.788-9.66c0-.446.08-.93.649-.99.568-.06.608.465.698.88.24 1.149.489 2.307.748 3.455.26 1.148-.379 2.316-.618 3.454Zm7.124 1.574a40.023 40.023 0 0 1-1.936 6.126c-.998 2.88-1.995 5.751-2.993 8.611-.11.35-.268.683-.469.99a.551.551 0 0 1-.738.198.533.533 0 0 1-.28-.604c.039-.272.102-.54.19-.801 1.583-4.916 3.18-9.839 4.79-14.768a.48.48 0 0 1 0-.108c.199-.446.219-1.129.997-.99.778.138.339.722.439 1.346ZM929.223 346.46c.25-.179.15-.515 0-.763-2.215-3.78-3.74-7.918-6.585-11.382a54.338 54.338 0 0 0-13.81-12.283c-7.482-4.483-15.494-6.315-24.114-4.127a4.327 4.327 0 0 1-3.792-.723 5.884 5.884 0 0 0-7.044.584c-.31.287-.558.663-1.117.406-1.737-.792-1.766-.792-2.336.99a128.995 128.995 0 0 0-3.99 15.697c-1.068 5.504-2.085 11.007-2.764 16.56-.44 3.562-.875 7.122-1.307 10.679-.528 4.345-.998 8.7-1.297 13.055-.21 2.712-.38 5.434-.688 8.136a5.73 5.73 0 0 0 1.765 5.255 22.813 22.813 0 0 0 3.722 2.97c.839.504 1.267 1.128.33 1.98-.24.217-.53.563-.24.81 1.238 1.08.649 2.505.798 3.663v2.484a.694.694 0 0 0 .668.802c2.116.366 2.675-.08 2.655-2.168 0-.435-.06-.87-.08-1.296-.02-.426.05-.624.469-.693.998-.168 3.163.99 3.462 1.92.299.93.728.92 1.427.821 4.68-.663 9.389-.99 13.898-2.721 8.442-3.306 16.713-6.929 24.096-12.204 5.258-3.771 9.818-8.205 12.871-13.956 3.652-6.928 4.07-14.233 2.694-21.775-.299-.98-.738-1.94.31-2.721Zm-58.867-8.908c-1.164 6.262-2.335 12.53-3.512 18.805-.09.485 0 1.198-.778 1.06-.779-.14-.539-.793-.45-1.287 1.504-8.328 3.017-16.655 4.54-24.982.2-1.089.4-2.168.579-3.256.08-.476.08-1.07.749-.99.668.079.369.683.418 1.079.01.158.01.316 0 .475h.1a632.517 632.517 0 0 1-1.616 9.086Zm45.786 24.447a.307.307 0 0 1 .18.475c-.569 1.079-1.137 2.158-1.726 3.227-.08.148-.3.227-.418.306-.47 0-.54-.297-.39-.584a116.904 116.904 0 0 1 1.647-3.147.55.55 0 0 1 .738-.287Zm-6.874-29.01a.67.67 0 0 1 .998-.297c.997.554 1.995 1.158 2.993 1.762.123.112.22.251.28.405 0 .505-.18.703-.59.515a79.329 79.329 0 0 1-3.212-1.534c-.349-.178-.618-.445-.438-.861Zm-28.256 56.97a9.964 9.964 0 0 1-1.656 1.525c-1.367.792-2.325 0-2.774-2.425.718.713 1.257.416 1.816.188a18.996 18.996 0 0 1 1.786-.643c.409-.129.908-.317 1.207.128.3.446-.03.881-.379 1.228Zm12.851-3.84c-2.265.762-4.28 2.356-6.874 2.079a8.678 8.678 0 0 0-1.577.129c-.17 0-.529 0-.608-.396-.08-.396.32-.673.698-.782 2.145-.604 4.3-1.188 6.446-1.772.494-.154.997-.28 1.506-.376.34-.06.758-.09.868.386a.612.612 0 0 1-.459.732Zm14.428-18.607c-8.85 3.721-17.65 7.532-26.94 10.145-.848.237-1.716.386-2.574.564-.858.178-1.456 0-1.327-1.109.36-3.137.619-6.275.998-9.412.509-4.216.998-8.433 1.656-12.65.888-6.205 2.106-12.352 3.382-18.488.034-.532.462-.956.998-.99 1.397-.148 2.794-.346 3.502-1.84a.652.652 0 0 1 .619-.288c4.7-.07 9.4-.673 14.088 0a19.525 19.525 0 0 1 7.983 2.89 10.362 10.362 0 0 1 4.779 8.8v2.335c.379 6.79-2.724 12.372-7.234 17.39-.21.238-.45.455-.668.683-.22.228-.41.327-.29.594.12.267.409.178.638.168.23-.01.868-.267.998.258.13.524-.24.762-.608.95Zm8.35 6.483a.533.533 0 0 1-.1.217c-1.905 2.227-3.79 4.484-6.435 5.94a2.496 2.496 0 0 1-.498 0l5.158-5.187c.449-.455.887-.91 1.357-1.346a.49.49 0 0 1 .4-.149c.179.11.118.337.118.525Zm3.443-19.014a6.879 6.879 0 0 0-.21 2.811c0 .93-.578.99-1.267.99-.688 0-.808-.495-.709-1.059l.87-10.244c0-.406.059-.822.597-.871.54-.05.599.346.709.752.678 2.534 1.037 5.068-.04 7.621Zm5.877 5.464c-1.128 3.484-2.375 6.928-3.583 10.382-.169.476-.279 1.129-.997.921-.718-.208-.44-.831-.279-1.297 1.59-4.948 3.196-9.897 4.819-14.846.16-.475.12-1.287.928-1.128.808.158.319.86.449 1.237-.04 1.772-.888 3.207-1.387 4.73ZM595.365 349.835c.6-.475.55-.99.15-1.525-.399-.534-.539-1.059-.828-1.573-1.925-3.356-3.332-6.998-5.986-9.957a80.759 80.759 0 0 0-6.835-6.929 42.293 42.293 0 0 0-13.07-7.918 29.375 29.375 0 0 0-17.62-1.049 4.54 4.54 0 0 1-3.822-.614 5.64 5.64 0 0 0-7.214.644c-.33.297-.568.594-1.108.227-1.356-.9-1.715-.732-2.184.871-.13.456-.29.901-.43 1.356a162.585 162.585 0 0 0-4.779 20.39 315.545 315.545 0 0 0-2.554 17.815c-.518 4.424-.928 8.908-1.337 13.293-.339 3.612-.538 7.235-.937 10.887-.3 2.613.139 4.83 2.354 6.533.997.752 1.906 1.553 2.933 2.246 1.028.693 1.198.99.34 2.118-.17.228-.449.495-.19.713 1.277.99.628 2.425.799 3.514v2.365c0 .357 0 .693.478.842 1.746.574 2.834-.159 2.834-1.98v-1.415c0-.426.17-.654.628-.683a3.715 3.715 0 0 1 3.313 1.98c.27.81.718.9 1.437.781 1.107-.178 2.225-.227 3.323-.435 2.384-.436 4.859-.396 7.183-1.188a126.202 126.202 0 0 0 18.668-7.918c6.635-3.563 12.801-7.72 17.67-13.53a29.27 29.27 0 0 0 6.925-14.48 34.772 34.772 0 0 0-.41-13.986c-.11-.495-.239-1.01.27-1.395Zm-58.158-11.492a6044.74 6044.74 0 0 0-3.702 20.261c-.07.386-.17.762-.249 1.158-.08.396-.24.693-.688.633-.45-.059-.5-.485-.44-.821.25-1.683.52-3.355.819-5.018l3.99-22.458c.08-.465.18-.92.28-1.386.1-.465.17-.93.768-.86.599.069.44.573.469.99v.474h.04Zm45.497 26.546c.17.06.23.198.13.604-.54.99-1.177 2.147-1.856 3.305a.512.512 0 0 1-.658.09c-.28-.159-.15-.406 0-.614.538-.99 1.078-1.98 1.636-3.029a.61.61 0 0 1 .748-.356Zm-6.984-28.872a.508.508 0 0 1 .658-.366 9.725 9.725 0 0 1 3.543 2.059c.05.05.06.149.09.228 0 .386-.27.485-.549.366-1.167-.505-2.315-.99-3.463-1.574a.572.572 0 0 1-.269-.713Zm-28.046 56.674a8.457 8.457 0 0 1-1.917 1.752 1.673 1.673 0 0 1-2.424-1.049l-.39-1.138a2.333 2.333 0 0 0 1.917-.129c.67-.253 1.352-.471 2.046-.653.328-.099.727-.247.996.119a.758.758 0 0 1-.228 1.098Zm12.65-3.612c-2.244.841-4.29 2.316-6.565 2.157h-1.487c-.389 0-.897.159-.997-.395-.1-.555.45-.664.858-.782 1.995-.555 3.991-1.119 5.987-1.653a23.055 23.055 0 0 1 1.865-.386c.27 0 .589 0 .709.297a.582.582 0 0 1-.37.762Zm14.568-18.657c-1.995.86-3.991 1.732-6.056 2.543-6.136 2.455-12.223 5.019-18.569 6.929-1.746.551-3.525.99-5.327 1.316-.75.129-1.068.06-.998-.87.798-10.265 2.255-20.44 3.99-30.584.57-3.336 1.358-6.642 1.997-9.977a1.382 1.382 0 0 1 1.466-1.337c1.227-.079 2.484-.306 2.993-1.692.18-.445.649-.406.998-.396 2.993.05 6.056-.168 9.25-.307 4.179-.033 8.3.989 11.972 2.97 3.582 2.058 5.079 5.265 5.368 9.214.579 7.83-2.245 14.362-7.613 19.954-.23.247-.678.455-.55.841.131.386.62.178.95.218.328.04.617 0 .698.317.19.495-.21.702-.57.86Zm8.122 6.68a23.424 23.424 0 0 1-6.646 5.94 9.666 9.666 0 0 1 2.135-2.475c1.268-1.297 2.575-2.564 3.872-3.84.16-.169.35-.406.6-.258.248.149.189.455.039.634Zm4.11-21.606a13.162 13.162 0 0 0-.788 4.949c.06.861-.3 1.197-1.187 1.188-.888-.01-.918-.545-.878-.92.31-3.564.598-6.85.908-10.146 0-.416 0-.99.638-.99.64 0 .65.555.749.99.21.99.428 1.92.638 2.88.166.677.14 1.387-.08 2.05Zm5.248 7.83c-1.127 3.453-2.375 6.868-3.571 10.303-.1.296-.224.584-.37.86a.54.54 0 0 1-.598.298.516.516 0 0 1-.445-.58l.006-.034c.049-.43.14-.854.269-1.267 1.543-4.81 3.104-9.617 4.68-14.42.15-.466.189-1.139.928-.99.738.148.399.762.499 1.306a21.619 21.619 0 0 1-1.398 4.523ZM716.024 354.21c1.207-.901.429-1.723 0-2.544-1.666-2.97-2.874-6.206-4.93-8.908a56.774 56.774 0 0 0-11.662-11.481 34.91 34.91 0 0 0-20.843-7.245c-2.23.11-4.443.442-6.606.99a4.49 4.49 0 0 1-3.812-.783c-1.575-1.207-3.382-.623-5.098-.702-.998 0-1.356.87-1.996 1.395-.379.317-.638.594-1.216.198-1.128-.782-1.597-.574-2.046.762a160.047 160.047 0 0 0-5.557 23.755c-.829 4.948-1.467 9.897-2.106 14.846-.589 4.573-.997 9.155-1.477 13.748-.349 3.692-.479 7.403-.997 11.065-.43 3.316.429 5.939 3.293 7.76.727.475 1.397 1.06 2.125 1.534.728.475 1.087 1.129.31 1.91-.22.218-.6.525-.3.782 1.267 1.09.588 2.514.778 3.603v.99c0 2.464 0 2.445 2.434 2.257.659 0 .929-.287.899-.99-.03-.703 0-1.495 0-2.247 0-.445.149-.752.678-.782a3.623 3.623 0 0 1 3.323 2.118c.239.693.658.713 1.197.654 1.147-.139 2.284-.317 3.432-.446a39.348 39.348 0 0 0 10.715-2.316c3.284-1.326 6.596-2.583 9.809-4.068 8.261-3.82 16.013-8.373 22.21-15.153a29.998 29.998 0 0 0 7.253-12.867 34.585 34.585 0 0 0 .19-16.628c-.09-.465-.33-.96 0-1.208Zm-57.95-11.61c-1.247 6.7-2.474 13.41-3.76 20.111-.11.594.118 1.822-.86 1.634-.977-.189-.398-1.238-.289-1.92 1.557-8.849 3.123-17.698 4.7-26.546.03-.237.087-.469.17-.693.18-.465 0-1.306.818-1.188.818.12.348.901.548 1.495-.428 2.326-.887 4.701-1.327 7.106Zm45.668 26.891a23.977 23.977 0 0 1-1.996 3.484.452.452 0 0 1-.635.014c-.004-.005-.01-.009-.013-.014-.19-.148-.13-.346 0-.524.538-.99 1.077-1.98 1.636-2.97a.72.72 0 0 1 .768-.435c.19.04.25.178.24.445Zm-7.095-29.495a.67.67 0 0 1 .61-.306 12.727 12.727 0 0 1 3.531 2.088c.17.366 0 .623-.478.623a27.823 27.823 0 0 1-3.553-1.722.503.503 0 0 1-.11-.663Zm-28.256 56.912a9.46 9.46 0 0 1-1.656 1.504c-.79.49-1.83.252-2.324-.53a1.668 1.668 0 0 1-.2-.46c-.14-.356-.27-.722-.4-1.078.705.26 1.487.212 2.156-.129a21.034 21.034 0 0 1 1.686-.564c.39-.119.818-.238 1.097.148.28.386-.04.832-.359 1.129Zm12.781-3.662c-2.235.762-4.22 2.326-6.574 2.058h-1.747c-.28 0-.579 0-.648-.376a.505.505 0 0 1 .429-.604 1252.36 1252.36 0 0 1 8.161-2.256.61.61 0 0 1 .802.31l.007.017a.632.632 0 0 1-.43.85Zm14.597-18.727c-2.753 1.168-5.487 2.366-8.25 3.474a178.235 178.235 0 0 1-17.84 6.464c-1.337.376-2.724.603-4.081.88-.61.13-.858 0-.789-.742a356.987 356.987 0 0 1 4.27-32.088c.52-2.87 1.218-5.701 1.747-8.571.16-.832.458-1.238 1.337-1.327 1.287-.118 2.544-.396 3.193-1.732.129-.277.448-.307.728-.316 4.14-.12 8.27-.634 12.402-.228 2.79.246 5.51.99 8.032 2.197 3.958 1.779 6.485 5.707 6.445 10.017v1.771c.24 7.087-2.794 12.867-7.512 17.816-.26.267-.789.465-.64.91.15.446.63.169.999.218.368.05.668.1.688.505.02.406-.43.594-.748.733Zm8.152 6.72c-1.935 2.267-3.861 4.554-6.555 5.94l-.359-.406c.648-.565 1.317-1.109 1.936-1.703 1.466-1.385 2.913-2.8 4.37-4.206.159-.149.299-.456.568-.287a.393.393 0 0 1 .02.643Zm3.912-20.784a8.826 8.826 0 0 0-.61 4.078c.08.811-.079 1.356-1.127 1.356s-.878-.743-.848-1.376c.25-3.148.489-6.285.739-9.433.037-.312.104-.62.199-.92a.568.568 0 0 1 .598-.475.586.586 0 0 1 .579.514c.19 2.06 1.318 4.049.45 6.236Zm6.824 2.375c.02.457-.044.913-.19 1.346-1.557 4.474-3.106 8.951-4.65 13.431-.1.268-.179.525-.289.782-.11.258-.399.614-.817.505-.42-.109-.47-.544-.38-.88.353-1.208.722-2.416 1.108-3.623 1.257-3.913 2.52-7.82 3.791-11.72.17-.504.23-1.246.998-1.088.768.158.31.831.41 1.227ZM957.799 341.135a1.725 1.725 0 0 0-1.856-1.287c-1.606 0-2.215-.554-2.644-2.158-.15-.564-.459-.653-.998-.584-1.024.139-2.052.267-3.083.386-2.294.258-4.59.495-6.874.792-1.248.159-1.477.693-.768 1.643.209.287.518.525.498.91-.109 2.129.31 4.316-.787 6.325a.545.545 0 0 0 0 .436 6.465 6.465 0 0 1-1.288 5.631c-.898 1.218-1.996 2.247-1.996 4.019 0 3.345-.269 6.7-.478 10.036 0 .594.09 1.336-.569 1.712-.937.535-.699 1.119-.15 1.733.345.387.498.905.42 1.415-.42 5.384-1.348 10.71-1.996 16.064a2.03 2.03 0 0 0 .698 1.98c.788.663 1.497 1.415 2.285 2.078a2.05 2.05 0 0 1 .709 2.316c-.4 1.603-.679 3.236-.998 4.85-.1.495-.2.99.379 1.217 2.096.693 3.99 1.98 6.286 1.693 2.335 0 2.335 0 3.093-2.099l.18-.445a29.25 29.25 0 0 1 4.42-6.86 3.873 3.873 0 0 0 1.067-2.909c-.2-2.158-.369-4.315-.56-6.473 0-.356-.138-.733.161-.99.728-.663.32-1.722.888-2.464.18-.228 0-.634-.27-.842a2.08 2.08 0 0 1-.618-2.039c.31-4.642.548-9.284.898-13.926a27.519 27.519 0 0 1 1.386-7.77c1.149-3.067 2.345-6.126 3.404-9.224a4.46 4.46 0 0 0-.19-3.88 8.532 8.532 0 0 1-.65-1.286Zm-16.353 13.856c0-.584.12-1.168.18-1.752 0-.386.169-.722.648-.653.478.07.389.416.31.733 0 .584 0 1.177-.08 1.761 0 .367-.09.753-.58.713-.488-.04-.498-.445-.478-.812Zm-.64 12.184a31.594 31.594 0 0 0-.238 3.88c0 .426 0 .99-.63.94-.627-.049-.417-.564-.438-.93a26.946 26.946 0 0 1 .25-3.959c.05-.465 0-1.089.678-.99.678.1.31.644.379 1.05Zm.48-8.076a.447.447 0 0 1 .529-.376c.25.02.44.235.43.485v1.306h.049c-.06.584-.12 1.178-.2 1.762 0 .297-.18.525-.528.525a.488.488 0 0 1-.52-.535 65.4 65.4 0 0 1 .24-3.177Zm2.175 35.196a3.811 3.811 0 0 1-1.646 3.276c-.19.129-.359.376-.619.198s-.09-.356-.08-.545l.27-3.295c.07-.99.808-.663 1.347-.713.539-.05.848.228.728 1.069ZM624.24 344.143a1.725 1.725 0 0 0-1.755-1.266c-1.367-.07-2.604-.555-2.814-2.198-.07-.613-.499-.633-.998-.584l-10.197 1.218c-.838.099-1.107.772-.648 1.257 1.207 1.286.528 2.741.708 4.127.2 1.643-.679 3.058-.579 4.731a6.657 6.657 0 0 1-1.776 5.088 5.495 5.495 0 0 0-1.805 3.86c-.05 3.305-.31 6.611-.51 9.897 0 .713.14 1.495-.857 1.87-.569.219-.449.872-.07 1.199.644.614.894 1.532.648 2.385-.648 5.196-1.287 10.392-1.995 15.589a1.692 1.692 0 0 0 .508 1.603c.998.881 1.886 1.801 2.864 2.682.466.39.647 1.02.459 1.594-.42 1.762-.768 3.553-1.188 5.315-.108.485-.129.92.39 1.089 2.105.663 3.99 1.98 6.226 1.643 2.454 0 2.454 0 3.203-2.05 0-.069.07-.138.1-.217a25.397 25.397 0 0 1 4.509-7.077 3.937 3.937 0 0 0 .998-2.682c0-2.168-.41-4.315-.51-6.473a2.482 2.482 0 0 1 .171-1.277c.628-1.287 1.646-2.583.08-3.959-.22-.178-.12-.505-.1-.792.29-4.563.528-9.125.858-13.688.08-3.277.682-6.521 1.786-9.61a152.906 152.906 0 0 0 2.993-7.919 4.697 4.697 0 0 0-.17-4.276 6.725 6.725 0 0 1-.528-1.079Zm-16.263 13.055a.237.237 0 0 1 0-.118c.14-.515-.32-1.455.539-1.455 1.058 0 .3.99.57 1.484-.23.565.348 1.633-.75 1.564-.907-.069-.2-.98-.359-1.475Zm-.998 17.084c0 .366-.1.762-.588.732-.49-.03-.469-.376-.459-.703.09-1.573.17-3.147.28-4.71 0-.327.199-.644.598-.624.4.02.43.396.439.712v1.653a19.313 19.313 0 0 1-.309 2.94Zm.74-11.877c.069-.337.079-.792.588-.713.508.08.369.525.39.861.018.337 0 .703 0 1.06h-.061v1.533a.585.585 0 0 1-.589.624c-.439 0-.489-.327-.489-.653-.055-.89-.016-1.782.12-2.663Zm.458 38.175a.581.581 0 0 1-.42.148c-.238-.06-.209-.307-.199-.495.09-1.177.17-2.365.29-3.533.08-.762.698-.614 1.197-.624.499-.01.858.179.848.743v.712c.25 1.544-.908 2.237-1.756 3.098ZM630.835 319.607c.23 0 .47-.06.71-.099.808-.128 1.146-.811.588-1.415-.878-.99-2.195-1.623-2.135-3.197-1.995-1.554-3.333-4.375-7.353-3.415-1.348 0-3.433-.138-5.488 0a24.12 24.12 0 0 0-6.755 1.435 5.17 5.17 0 0 0-2.814 2.267 1.162 1.162 0 0 0 .25 1.673c.608.495 1.167 1.069 1.796 1.554a1.065 1.065 0 0 1 .31 1.603c-.999 1.722-1.787 3.534-2.775 5.236-.518.91-.28 1.306.599 1.673 1.177.494 2.314 1.069 3.462 1.613.27.138.698.198.649.594-.05.396-.5.475-.838.524a5.864 5.864 0 0 1-2.715-.257c-.718-.228-1.067 0-1.047.742v3.079c0 .425.1.83.55.99 1.105.443 2.266.739 3.45.88a27.652 27.652 0 0 0 9.17-1.405c3.123-1.07 5.767-2.742 6.705-6.176.469-1.693.46-1.693-1.247-1.871-.239 0-.51 0-.619-.248-.109-.247.06-.445.22-.623a6.565 6.565 0 0 1 1.786-1.237 22.838 22.838 0 0 1 3.891-1.495c.528-.178 1.208-.356 1.108-1.04-.1-.682-.808-.346-1.258-.375-.449-.03-.897.168-.997-.386-.1-.555.418-.555.797-.624ZM964.424 316.628h.719c.807-.109 1.096-.643.638-1.326-.313-.35-.645-.68-.998-.99-.37-.396-1.087-.673-.997-1.247.139-.9-.45-1.267-.929-1.772-1.935-2.068-3.99-3.8-6.714-2.87-3.098-.122-6.2.124-9.24.732a8.847 8.847 0 0 0-5.127 2.316c-1.188 1.257-1.149 1.792.108 2.97.337.335.701.643 1.088.92.898.574.888 1.227.4 2.098-.999 1.723-1.806 3.514-2.774 5.236-.389.683-.21.99.429 1.257 1.236.545 2.454 1.139 3.671 1.722.27.13.699.179.66.575-.041.395-.47.504-.81.583a4.833 4.833 0 0 1-2.593-.267c-.839-.267-1.078.05-1.058.832v2.969c0 .406 0 .841.488.99 1.084.406 2.213.678 3.363.811a27.43 27.43 0 0 0 9.628-1.474c3.303-1.158 5.747-3.197 6.546-6.77.17-.763 0-1.228-.898-1.238-.39 0-.998.258-1.107-.346-.09-.455.399-.732.738-.99a15.887 15.887 0 0 1 4.879-2.237c.568-.178 1.307-.297 1.177-1.078-.13-.782-.848-.347-1.307-.426-.459-.08-.918.148-.918-.455 0-.604.549-.495.938-.525Z"/><path d="M838.078 321.804c.66 0 .899 1.07 1.487.693.59-.376.699-.99.998-1.554.3-.564.738-1.217 1.117-1.82.335-.527.505-1.14.49-1.762 0-.337.12-.901-.529-.911-.65-.01-1.487-.307-1.925.524-.699 1.32-1.392 2.64-2.076 3.96-.18.475-.14.87.438.87ZM504.48 324.833c.356.048.683.216.928.475.42.406.679.198.919-.217.438-.743.927-1.465 1.346-2.218a4.1 4.1 0 0 0 .929-2.385c0-.406.16-1.04-.42-1.059-.578-.02-1.586-.277-1.995.554-.718 1.317-1.357 2.673-1.995 4.009-.29.425-.31.772.289.841ZM530.781 398.105a7.301 7.301 0 0 0-1.905 2.079c-.33.534-.2 1.089.718 1.178a9.524 9.524 0 0 0 2.295-2.059.768.768 0 0 0 .11-1.158.923.923 0 0 0-1.218-.04ZM864.64 395.027a8.2 8.2 0 0 0-2.266 2.227c-.39.554 0 1.129.699 1.08a6.074 6.074 0 0 0 2.683-2.564c0-.664-.538-1.109-1.117-.743ZM651.869 402.154a8.646 8.646 0 0 0-2.046 1.98.767.767 0 0 0 0 1.078.803.803 0 0 0 1.178-.099 33.256 33.256 0 0 0 1.766-1.752c.124-.158.222-.335.29-.524.008-.743-.56-1.04-1.188-.683ZM318.41 405.063a6.37 6.37 0 0 0-2.235 2.247c-.31.535-.1.99.549.99a5.788 5.788 0 0 0 2.754-2.554.673.673 0 0 0-.52-.8.683.683 0 0 0-.548.117Z"/></g></g></g></g></svg>