<svg xmlns="http://www.w3.org/2000/svg" viewBox="0 0 652.9504 215.6501"><path d="M383.427 47.605c-14.738-11.833-31.722-18.26-50-20.752-8.232-1.122-17.045-.992-25.157.678-13.238 2.726-20.18 12.029-21.113 25.516-.662 9.566.803 18.872 4.465 27.745 6.105 14.794 19.235 20.361 36.81 15.555 18.457-5.048 34.082-15.397 49.24-26.569 1.719-1.267 3.43-2.546 5.912-4.389v71.594c-2.415-.985-4.484-1.787-6.52-2.667-17.89-7.733-36.111-14.396-55.621-16.722-3.61-.43-7.319-.549-10.941-.275-13.784 1.043-22.79 9.804-25.121 23.401-1.68 9.797-1.752 19.48.527 29.112 4.046 17.092 14.323 29.04 30.908 34.94 14.534 5.17 29.52 8.247 44.928 4.135 3.81-1.017 7.234-3.463 10.836-5.252l-.62-1.341c-2.263.705-4.483 1.629-6.796 2.077-11.423 2.217-21.977-4.967-26.347-17.806-4.647-13.65.578-30.102 11.629-36.621 11.559-6.819 25.893-1.682 31.441 11.952 5.424 13.332 4.524 26.781-2.68 39.27-5.47 9.48-14.47 14.133-25.337 14.211-30.088.215-60.178.023-90.266.21-4.992.03-4.162-3.04-4.171-5.916-.18-56.528-.345-113.056-.505-169.584-.032-11.273.147-22.55-.133-33.816-.103-4.177.873-5.846 5.415-5.85C302.596.42 340.982.189 379.368.002c2.695-.013 4.944.111 4.91 3.82-.128 14.089-.095 28.178-.155 42.268-.002.415-.369.828-.696 1.516ZM518.812 73.82v67.416l-4.518-1.606c-17.022-6.051-33.87-12.673-51.148-17.878-7.07-2.13-15.133-2.02-22.626-1.434-8.321.651-14.17 5.885-17.64 13.626-8.056 17.968-3.508 44.978 10.017 59.196 6.362 6.687 14.18 11.079 22.946 13.413 13.845 3.687 27.879 6.796 42.18 2.264 3.003-.952 5.734-2.758 9.304-4.524-1.433-.635-1.743-.91-1.973-.855-19.27 4.635-33.257-6.131-33.264-25.835-.002-3.427.584-6.987 1.627-10.255 3.308-10.366 11.529-16.976 20.863-17.248 9.766-.285 19.311 5.999 22.787 16.25 4.876 14.378 3.69 28.124-6.932 39.968-5.144 5.735-11.98 8.167-19.453 8.997-2.305.255-4.649.218-6.975.219-29.584.013-59.168.008-89.276.008V.83c2.128 0 3.756-.131 5.358.02 38.212 3.605 76.417 7.282 114.637 10.806 3.742.345 5.059 1.584 4.987 5.471-.242 13.061-.092 26.13-.092 39.92-1.393-.621-2.153-.79-2.698-1.226-17.014-13.605-36.41-21.717-57.975-24.424-5.354-.672-10.972-.398-16.334.37-10.526 1.51-17.837 9.361-19.502 19.844-1.656 10.427-.25 20.523 3.527 30.262 5.6 14.437 17.766 21.176 33.4 18.832 14.399-2.16 27.282-8.245 39.734-15.373 6.14-3.515 12.117-7.314 19.04-11.513ZM652.95 215.282H529.79V13.345l86.525 15.357c-1.61 2.472-2.463 3.778-3.312 5.087-23.535 36.263-42.557 74.598-52.496 116.867-1.853 7.883-2.136 16.508-1.21 24.57 1.17 10.172 8.56 14.72 18.724 12.924 15.987-2.825 30.207-10.224 43.686-18.71 10.88-6.849 20.861-15.118 31.243-22.758v68.6ZM237.966 13.791c-3.464-1.57-6.818-4.164-10.41-4.549-24.502-2.627-47.081 2.583-64.384 20.856-14.538 15.353-17.71 34.449-12.067 54.697 2.776 9.957 10.78 15.746 21.476 16.37 15.449.899 29.99-3.258 44.2-8.625 8.38-3.166 16.515-6.981 24.766-10.49 2.09-.889 4.205-1.722 6.885-2.815v70.878c-8.116-5.518-15.826-11.182-23.946-16.185-12.718-7.835-26.255-13.554-41.582-13.749-10.82-.137-18.72 4.63-24.224 13.813-12.932 21.58-6.688 48.697 15.528 63.864 7.877 5.378 16.91 9.083 25.458 13.467 2.435 1.25 5.023 2.202 7.345 4.233h-7.222c-23.112 0-46.224-.111-69.334.093-4.446.04-6.046-1.05-6.054-5.728-.105-63.667-.353-127.334-.703-191-.022-3.99 1.163-5.394 5.193-5.83 28.084-3.04 56.14-6.33 84.206-9.536.33-.038.664-.046.995-.078 13.036-1.254 24.428 1.416 30.742 14.21 6.986 14.155 7.64 28.537-1.39 42.07-5.183 7.767-13.18 10.978-22.589 9.613-8.72-1.264-13.566-7.082-16.49-14.845-2.99-7.942-2.863-15.972.069-23.847 5.061-13.597 16.344-18.804 32.675-15.343l.857-1.544ZM60.98 215.343H.62v-119.2c22.792 16.39 42.296 10.586 60.362-9.154v128.354ZM60.975 25.361c0 6.325-.003 12.749.001 19.172.004 5.97-.297 11.96.122 17.901.346 4.91-1.436 8.572-4.568 12.075C43.865 88.67 25.036 93.18 9.615 85.756 3.291 82.71-.545 78.806.063 70.889c.747-9.726.211-19.553.133-29.335-.019-2.367.237-4.132 3.07-4.73 18.53-3.915 37.04-7.929 55.564-11.88.433-.092.941.17 2.146.417Z" style="fill:#f8a8c6"/></svg>