<svg xmlns="http://www.w3.org/2000/svg" xml:space="preserve" width="816" height="221" overflow="hidden"><defs><clipPath id="a"><path d="M232 249h816v221H232z"/></clipPath><clipPath id="b"><path d="M232 250h816v220H232z"/></clipPath><clipPath id="c"><path d="M232 250h816v220H232z"/></clipPath><clipPath id="d"><path d="M232 250h816v220H232z"/></clipPath></defs><g clip-path="url(#a)" transform="translate(-232 -249)"><g clip-path="url(#b)"><g clip-path="url(#c)"><g clip-path="url(#d)"><path fill="#CC9371" d="M700.056 435.127c15.063-17.152 24.117-37.078 26.627-59.734 2.979-26.881-.594-52.687-15.282-76-13.095-20.784-30.429-36.47-54.735-43.153-1.775-.488-3.555-.956-5.333-1.434-.875-.04-1.768.018-2.623-.137-12.44-2.25-24.699-1.218-36.73 2.36-18.349 5.456-32.585 16.838-44.342 31.59-14.984 18.799-22.315 40.38-23.571 64.297-1.683 32.059 7.639 60.304 28.924 84.327 6.534 7.375 14.371 13.437 22.968 18.412 11.218 6.489 23.38 9.585 36.215 10.367 8.501-.05 16.947-.577 25.194-2.876 17.209-4.796 31.032-14.748 42.688-28.02Zm-48.843 18.007c-4.98 1.744-10.041 1.084-15.013.196-14.044-2.51-24.468-10.895-33.372-21.41-15.034-17.755-23.436-38.51-27.038-61.342-3.046-19.317-2.755-38.515 2.444-57.467 3.309-12.079 8.285-23.389 16.847-32.754 11.464-12.54 25.496-17.475 42.287-13.787.459.101.884.357 1.326.54 6.362 1.274 11.872 4.39 16.976 8.201 12.658 9.45 21.69 21.905 28.299 36.033 13.812 29.522 17.725 60.303 10.094 92.18-3.361 14.041-9.25 26.963-19.473 37.503-5.477 5.647-12.039 9.557-19.652 11.63-1.214.333-2.432.725-3.725.477ZM1014.34 410.291l-.101-.054s.06.034.088.048Z"/><path fill="#CC9371" d="M1013.7 300.763c9.119-6.744 15.234-15.697 19.239-26.203 1.882-4.934 2.97-10.068 3.72-15.273.217-1.5.629-3.105-.404-4.534-1.266-.048-2.533-.138-3.799-.139-32.971-.04-65.942-.071-98.913-.093-7.218-.005-14.437.089-21.655.054-2.348-.011-3.529.849-3.18 3.305.329 2.312 2.16 1.533 3.451 1.552 7.804.116 12.377 2.98 14.262 9.12.693 2.255.866 4.583.866 6.943-.013 50.09-.021 100.18-.024 150.27 0 4.68.213 9.36-.464 14.033-1.798 12.431-8.593 18.976-20.73 19.817-.292.02-.585.025-.875.06-1.335.152-1.799 1.066-1.826 2.244-.029 1.257.327 2.378 1.76 2.637.759.139 1.555.08 2.336.082 24.972.006 49.946.008 74.92.005 13.85-.01 27.7-.08 41.55-.125 10.873-9.36 17.006-31.573.207-46.933-2.213-2.02-4.653-3.788-6.989-5.67-.372-.11-.658-.367-.972-.581a.527.527 0 0 1-.392-.158 1.063 1.063 0 0 1-.576-.356l-.876-.523-.107.06.01-.108c-.587-.26-1.183-.502-1.754-.794-1.066-.545-2.165-1.164-3.151.03-.916 1.11-.837 2.334-.072 3.524.263.41.542.81.799 1.225 5.861 9.438 5.024 20.648-2.322 29.007-4.596 5.231-10.343 8.836-16.896 11.14-1.973.695-3.833 1.926-6.089 1.405-9.699 1.967-18.654-1.065-23.202-7.926-2.874-4.337-3.432-9.26-3.43-14.308.011-18.943.017-37.886.019-56.83 0-4.395.04-8.79-.059-13.182-.042-1.805.379-2.653 2.421-2.58 4.481.166 8.971.105 13.457.137 12.128-1.451 21.135 2.67 25.851 14.48.365.913.91 1.715 1.707 2.32 1.534-.44 2.507-1.19 2.5-3.052-.051-13.277-.018-26.556-.032-39.834 0-.573-.192-1.146-.294-1.72-1.63-1.248-2.773-.88-3.656.96-.882 1.841-1.905 3.597-2.871 5.388-3.363 6.221-8.78 9.09-15.647 9.442-2.606.132-5.227-.025-7.841-.05-4.29.047-8.588-.044-12.867.197-2.356.132-2.736-.84-2.721-2.873.077-9.667.033-19.334.033-29 0-13.184-.028-26.367.018-39.55.025-7.19 3.633-13.015 9.51-14.135 6.62-1.26 13.356-1.121 19.997.311.288.049.574.112.855.191 7.994 1.072 15.229 3.835 20.994 9.69 2.434 2.47 3.843 5.508 4.606 8.936 1.079 4.835-.215 9.234-1.957 13.612-.751 1.905-1.053 3.648 1.555 4.353ZM888.207 286.602c1.325-6.394 1.144-12.82-.412-19.167-2.11-8.6-7.493-14.14-15.915-16.757-.677-.064-1.359-.092-2.029-.197-9.311-1.464-17.678.337-25.112 6.504-9.705 8.052-15.108 18.6-18.488 30.427-.722 2.525.682 3.387 3.018 3.201 1.21-2.1 2.299-4.283 3.654-6.286 5.148-7.607 11.756-9.685 21.145-6.774 6.611 1.76 10.239 6.329 11.207 13.696.923 7.02-.162 13.776-2.075 20.495-7.106 24.954-16.027 49.284-25.131 73.552-1.126 3-1.994 6.12-3.684 8.888-2.463 8.227-6.144 15.953-9.885 24.63-1.615-5.756-3.026-10.703-4.396-15.661a624931.012 624931.012 0 0 1-35.57-128.846c-.286-1.033-.59-2.069-.766-3.124-1.171-7.015 1.978-11.083 9.056-11.733.972-.089 1.948-.126 2.92-.208 3.524-.295 4.018-1.088 2.793-4.468-1.162-.106-2.324-.3-3.485-.304-20.869-.025-41.737-.034-62.606-.026-1.067 0-2.148.04-3.2.204-1.128.176-1.624 1-1.627 2.103-.003 1.073.394 1.954 1.524 2.198.849.185 1.734.247 2.608.271 9.662.265 16.383 5.002 19.691 14.1 1.299 3.572 2.326 7.244 3.419 10.887 17.671 58.923 35.336 117.846 52.998 176.769 1.366 4.56 1.381 4.556 6.192 4.358 23.989-49.548 45.637-100.11 65.356-151.502 3.418-8.91 6.855-17.845 8.8-27.23ZM525.193 443.504c1.555-13.052-2.512-24.361-12.381-33.335-1.963-1.784-4.43-2.756-6.667-4.1-7.637-1.954-14.594-.281-21.098 3.92-1.215.785-1.448 1.386-.185 2.348.833.635 1.427 1.582 2.258 2.22 12.856 9.854 12.516 29.211-3.372 36.866-6.825 3.753-13.962 4.707-20.915.912-6.939-3.786-9.932-10.386-9.961-18.061-.125-33.378-.071-66.756-.075-100.135v-61.486c-.003-3.51.673-6.799 2.759-9.66 2.4-3.296 5.747-4.886 9.781-5.018 2.241-.073 4.486-.024 6.727-.053 3.266-.042 3.589-.414 3.394-3.82-1.142-.967-2.515-.913-3.891-.913-21.173.009-42.346.013-63.52.013-.876 0-1.759-.004-2.631.083-1.349.137-2.172.885-2.149 2.292.021 1.358.724 2.213 2.133 2.3 1.46.09 2.931.054 4.385.18 5.393.46 9.713 3.977 11.377 9.133.798 2.47.728 5.006.728 7.543V380.21c-.003 17.97.027 35.942-.05 53.908-.03 7.102-2.593 13.343-7.089 18.797-3.638 4.414-8.514 5.514-13.941 5.23-1.486-.076-2.347.805-2.362 2.368-.016 1.67.826 2.57 2.471 2.616 2.047.055 4.097.03 6.145.03 34.735-.003 69.47-.008 104.205-.013 8.995-3.454 12.876-10.845 13.924-19.643ZM306.6 459.947c-6.616.4-11.11-2.772-14.658-7.93-3.96-5.755-5.58-12.132-5.563-19.071.063-27.63.083-55.26.06-82.89.004-25.284-.005-50.568-.026-75.854-.006-4.456 1.076-8.369 4.432-11.569 3.104-2.96 6.823-3.427 10.82-3.405 3.435.018 4.04-.93 3.121-4.365-1.127-.78-2.418-.642-3.68-.642-20.099 0-40.199.002-60.3.004-.39 0-.777.014-1.17.009-1.655-.024-2.596.806-2.69 2.433-.098 1.699.894 2.49 2.508 2.56 1.267.057 2.537.031 3.803.09 5.682.263 9.66 3.334 11.424 8.76.828 2.552.888 5.174.888 7.82-.004 46.974.067 93.948-.05 140.923-.02 8.35.852 16.74-1.003 25.066-2.476 11.126-8.714 16.916-20.012 17.958-1.681.155-2.433.792-2.441 2.534-.008 1.76.778 2.511 2.445 2.529.878.009 1.756.029 2.632.03 16.583.006 33.167.074 49.75-.013 7.505-.04 15.019.37 22.516-.291 1.6-3.535.903-4.91-2.806-4.686Z"/><path fill="#281A15" d="M707.784 274.999c-16.5-12.897-35.062-20.666-56.449-20.192 1.778.48 3.558.946 5.333 1.434 24.304 6.681 41.638 22.368 54.733 43.152 14.688 23.313 18.261 49.117 15.282 76-2.512 22.656-11.564 42.582-26.627 59.734-11.656 13.27-25.479 23.22-42.685 28.02-8.247 2.3-16.693 2.828-25.194 2.877 27.039 8.119 52.179 3.83 74.585-13.047 26.766-20.156 41.242-47.462 43.29-80.99 2.412-39.444-10.764-72.365-42.268-96.988ZM472.064 257.92c-2.242.03-4.485-.019-6.726.054-4.035.132-7.381 1.722-9.781 5.017-2.086 2.865-2.763 6.153-2.759 9.66.023 20.496.023 40.992 0 61.487.004 33.379-.051 66.757.075 100.135.028 7.674 3.021 14.274 9.96 18.061 6.953 3.794 14.091 2.841 20.915-.913-4.02-3.764-5.94-8.603-7.09-13.845-1.449-6.612-2.001-13.316-2.043-20.069-.295-47.06-.597-94.123-.906-141.187-.056-7.206 3.264-11.929 9.46-15.039 2.146-1.076 2.065-3.133 1.914-5.081-.149-1.93-1.621-2.22-3.195-2.207-2.142.02-4.286.067-6.428.103.193 3.41-.129 3.78-3.396 3.824ZM327.77 457.878c-2.796-.424-5.598-.835-8.37-1.385-4.3-.854-7.357-3.274-9.296-7.287-2.16-4.479-3.457-9.148-3.462-14.1-.058-52.95-.094-105.9-.108-158.85 0-2.67.447-5.254 1.46-7.721 1.158-2.82 3.04-4.692 6.296-4.914 2.351-.16 4.276-1.298 5.715-3.173.915-1.194 1.648-2.489.863-4.042-.725-1.434-2.072-1.639-3.496-1.629l-12.589.083c.92 3.436.314 4.384-3.12 4.365-3.998-.021-7.716.446-10.82 3.406-3.354 3.2-4.439 7.113-4.433 11.569.031 25.284.04 50.57.026 75.855-.004 27.63-.024 55.26-.06 82.889-.016 6.939 1.604 13.315 5.563 19.07 3.548 5.16 8.042 8.331 14.658 7.93 3.709-.224 4.405 1.152 2.812 4.686 5.953.024 11.906.048 17.859.07 1.819.005 3.642-.011 3.823-2.525.176-2.433-.817-3.917-3.322-4.297ZM904.913 272.404c-.898-5.246-3.163-9.95-7.597-13.117-7.579-5.416-16.243-7.854-25.437-8.609 8.423 2.617 13.806 8.156 15.916 16.754 1.555 6.347 1.735 12.774.412 19.167-1.945 9.388-5.383 18.323-8.8 27.233-19.721 51.392-41.367 101.954-65.356 151.502 4.486.16 8.987.14 13.45.545 2.915.263 4.318-.854 5.577-3.391 18.664-37.622 35.662-76.002 51.981-114.685 6.753-16.006 13.429-32.06 18.466-48.722 2.646-8.75 2.921-17.705 1.388-26.677Z"/><path fill="#281A15" d="M795.744 259.24c-.972.082-1.948.12-2.92.209-7.078.65-10.227 4.718-9.056 11.733.176 1.055.478 2.09.766 3.123 11.853 42.95 23.71 85.899 35.57 128.846 1.37 4.958 2.779 9.905 4.396 15.66 3.741-8.676 7.422-16.402 9.885-24.63-7.332-26.027-14.664-52.057-21.994-78.086-4.15-14.755-8.42-29.48-12.328-44.3-1.93-7.316.691-10.791 8.058-11.82 1.693-.236 2.76-.889 2.659-2.77-.098-1.833-1.107-2.55-2.877-2.515-3.121.06-6.244.06-9.366.08 1.225 3.384.731 4.177-2.793 4.47ZM960.503 360.958c-2.041-.075-2.462.773-2.421 2.58.099 4.392.06 8.788.06 13.182-.002 18.944-.009 37.888-.019 56.831 0 5.047.555 9.971 3.43 14.307 4.546 6.861 13.503 9.893 23.202 7.926-8.319-4.124-11.055-11.401-11.078-20.053-.06-23.717-.065-47.435-.013-71.153 0-1.16.196-2.32.299-3.48-4.489-.033-8.979.027-13.46-.14ZM967.653 263.669c-5.879 1.12-9.486 6.945-9.51 14.135-.046 13.183-.016 26.366-.017 39.55 0 9.666.043 19.333-.033 29-.016 2.033.365 3.004 2.721 2.873 4.279-.24 8.577-.15 12.866-.197-.006-23.239-.059-46.477.007-69.716.028-9.528 5.235-14.715 14.82-15.143a59.078 59.078 0 0 0-.855-.19c-6.642-1.433-13.379-1.572-19.999-.312ZM506.144 406.068c2.237 1.343 4.704 2.315 6.667 4.099 9.869 8.973 13.936 20.282 12.381 33.335-1.048 8.798-4.929 16.189-13.923 19.637 6.24.07 12.481.177 18.721.196 4.931.017 8.871-2.052 11.74-6.049 3.778-5.265 4.433-11.329 4.38-17.577-.18-21.525-16.614-36.895-39.966-33.641ZM1036.659 259.29c-.75 5.204-1.838 10.338-3.72 15.273-4.007 10.506-10.12 19.458-19.239 26.202 3.462.802 6.971.585 10.474.493.831-.023 1.468-.456 2.072-.972 13.136-11.253 19.783-25.797 21.657-42.763.239-2.165-.749-3.015-2.875-2.927-2.921.12-5.848.113-8.773.16 1.033 1.428.621 3.033.404 4.534ZM1023.934 464.516c2.337.007 4.689-.156 7.007.06 3.272.307 5.613-1.046 7.566-3.49 3.239-4.054 5.112-8.738 6.163-13.74 2.23-10.62-.617-19.516-9.47-26.08-5.499-4.078-11.658-6.985-18.059-9.374l-.023-.009.035.028c2.336 1.882 4.779 3.65 6.989 5.67 16.798 15.362 10.665 37.576-.208 46.935ZM1003.992 335.01c.014 13.277-.019 26.556.032 39.833.007 1.861-.966 2.612-2.5 3.052 5.968 2.189 7.662 1.08 7.664-5.088.003-11.386-.008-22.771-.035-34.157-.009-4.636-.623-5.225-5.455-5.36.1.573.294 1.146.294 1.72ZM832.923 284.327c-1.355 2.003-2.444 4.186-3.654 6.286 2.924 1.02 5.926.533 8.9.414 2.178-.086 3.642-1.05 4.715-3.16 2.422-4.765 5.745-8.74 11.184-10.314-9.389-2.91-15.997-.833-21.145 6.774ZM1014.336 410.294h.003l-.011-.007-.088-.048v.01l-.011.107.107-.062ZM643.601 450.183c-11.508-5.97-19.965-15.218-27.031-25.793-15.459-23.136-21.935-48.95-22.016-76.524-.055-18.9 3.249-37.124 12.235-53.991 7.026-13.187 16.823-23.152 31.902-26.762-.441-.184-.866-.44-1.326-.54-16.788-3.688-30.82 1.246-42.286 13.787-8.56 9.362-13.536 20.672-16.848 32.751-5.198 18.952-5.489 38.15-2.443 57.467 3.601 22.832 12.004 43.587 27.038 61.342 8.904 10.515 19.328 18.902 33.372 21.41 4.971.888 10.033 1.548 15.013-.196-2.716-.518-5.184-1.693-7.61-2.951Z"/></g></g></g></g></svg>