<svg xmlns="http://www.w3.org/2000/svg" viewBox="0 0 625.6562 228.272"><path d="M340.218 93.367c1.033-1.688 1.9-3.113 2.776-4.53.303-.49.608-.983.955-1.442.871-1.152 1.798-2.263 2.64-3.435.448-.623.718-1.373 1.154-2.007.914-1.33 1.917-2.597 2.818-3.934.483-.715.774-1.56 1.252-2.278.835-1.256 1.77-2.445 2.62-3.692.497-.73.875-1.54 1.368-2.273.867-1.29 1.823-2.522 2.664-3.828.872-1.354 1.642-2.774 2.482-4.15.231-.38.572-.69.833-1.053.893-1.244 1.8-2.48 2.647-3.755.5-.75.845-1.603 1.352-2.347.856-1.256 1.786-2.46 2.68-3.69a1.94 1.94 0 0 0 .237-.402c.685-1.689 1.661-3.18 2.78-4.629.949-1.229 1.552-2.72 2.37-4.058.792-1.294 1.674-2.532 2.494-3.81a25.61 25.61 0 0 0 1.189-2.038c.476-.918.86-1.886 1.358-2.79.784-1.421 1.712-2.768 2.416-4.225.358-.741.478-1.65.5-2.49.063-2.331-.584-2.51-2.636-3.346-2.062-.84-4.08-.7-6.133-.907-1.141-.116-1.534-.956-1.019-2.346.395-1.064 1.044-2.034 1.436-3.098.528-1.431.904-2.917 1.375-4.37.135-.418.366-.807.57-1.2.069-.134.244-.226.28-.36.387-1.424.675-2.879 1.153-4.27.423-1.231 1.073-2.384 1.578-3.59a6.093 6.093 0 0 0 .442-1.588c.102-.829.534-1.195 1.334-1.204.44-.005.88-.02 1.32-.02C398.98.208 416.46.204 433.938.203c2.29 0 2.337.017 1.878 2.275-.296 1.457-.518 3.007-1.201 4.286a20.275 20.275 0 0 0-1.883 4.896c-.316 1.312-1.09 2.514-1.66 3.766-.049.108-.097.22-.128.334-.411 1.527-.836 3.051-1.222 4.584-.246.974-1.398 1.892-2.593 1.91-2.759.042-5.52.024-8.278.081-.78.016-1.518-.062-2.238.72-.475.517-1.531.56-2.275 1.122-1.702 1.285-3.462 2.441-4.698 4.266-.705 1.04-1.764 1.834-2.543 2.832-.855 1.096-1.557 2.31-2.357 3.45-.254.364-.643.631-.913.987-1.191 1.57-2.405 3.126-3.526 4.746-.938 1.354-1.728 2.808-2.638 4.182-1.047 1.58-2.192 3.096-3.222 4.686-.632.977-1.108 2.053-1.696 3.06-.248.425-.65.76-.904 1.183a167.484 167.484 0 0 0-2.86 4.88c-.183.328-.218.774-.213 1.164.022 1.796.045 3.595.141 5.389.08 1.471-.152 1.817-1.52 2.31-.493.177-.902.613-1.32.967-1.449 1.232-2.903 2.459-4.321 3.726-1.222 1.092-2.455 2.182-3.572 3.377-.866.925-1.552 2.018-2.334 3.023-.729.937-1.486 1.852-2.218 2.787-.617.787-1.218 1.586-1.821 2.383-1.244 1.644-2.51 3.272-3.716 4.945-.47.653-.758 1.435-1.205 2.108-.852 1.286-1.776 2.524-2.637 3.804-.507.753-.92 1.57-1.427 2.323-.854 1.264-1.794 2.47-2.612 3.755-.572.897-.984 1.895-1.502 2.828-.258.464-.532.947-.905 1.313-1.133 1.114-1.404 2.74-2.599 3.903-1.125 1.096-1.616 2.822-2.483 4.21-.771 1.236-1.697 2.374-2.513 3.582-.473.7-.84 1.472-1.295 2.185-.852 1.33-1.756 2.626-2.596 3.962-.882 1.403-1.705 2.842-2.572 4.254-.292.475-.647.912-.961 1.375-1.051 1.551-2.082 3.117-3.16 4.65-.155.22-.517.363-.804.405-.55.081-1.115.084-1.673.085-13.64.008-27.278.013-40.917.014-2.227 0-2.315-.08-2.315-2.272 0-2.04-.314-4.164.143-6.101 1.02-4.329.213-8.795 1.065-13.019.748-3.708.447-7.36.82-11.02.056-.548.379-1.065.54-1.608.12-.407.247-.832.257-1.25.071-3.16.091-6.32.189-9.477.015-.5.35-.985.515-1.484.109-.33.248-.674.251-1.012.024-2.52.04-5.04-.002-7.559-.007-.422-.313-.838-.473-1.26-.11-.287-.264-.573-.294-.87a15.421 15.421 0 0 1-.062-1.798c.043-2.598-.871-4.778-2.77-6.562-.356-.334-.596-.791-.93-1.247.62-1.829 1.811-3.38 3.335-4.701.085-.074.143-.184.196-.286.65-1.235 1.416-2.425 1.909-3.72.56-1.47.87-3.034 1.297-4.554.23-.818.49-1.627.712-2.447.104-.383.185-.779.211-1.174.05-.757.018-1.521.085-2.277.177-1.994.316-3.997.535-5.984.492-4.465.348-9.019.187-13.527-.047-1.295-.84-2.7-1.966-3.61-.609-.493-1.441-1.026-2.159-1.007-2.044.055-3.694-1.512-5.81-1.161-1.241.205-2.553.028-3.829-.05-.346-.02-.94-.272-.962-.47-.058-.506.116-1.049.254-1.562.043-.16.345-.249.394-.411.466-1.523.689-3.166 1.409-4.552.692-1.333.427-3.022 1.657-4.101a.44.44 0 0 0 .108-.21c.378-1.358.681-2.743 1.15-4.07.477-1.353 1.14-2.64 1.671-3.977.189-.474.26-1.003.332-1.514.108-.762.538-1.12 1.284-1.14.52-.012 1.04-.024 1.56-.024 24.237-.004 48.475-.015 72.713.003 2.517.002 2.912-.64 2.278 2.783-.199 1.077-.738 2.09-1.113 3.136-.287.798-.337 1.844-.887 2.353-1.225 1.132-.298 3.052-1.695 4.022-.075.052-.073.22-.103.333-.39 1.463-.678 2.963-1.195 4.38-.57 1.56-1.324 3.058-2.065 4.55-.12.24-.583.413-.898.431-.955.053-1.916.001-2.874.014-2.717.036-5.453-.09-8.144.197-1.453.155-2.801 1.072-3.885 2.183-.358.367-.759.699-1.076 1.097-1.135 1.428-1.6 3.126-2.223 4.812-.521 1.409-.304 2.923-.896 4.103-1.438 2.864-.71 5.827-.844 8.733-.138 2.99.05 5.996.096 8.994 1.156 1.129.59 2.865 1.586 4.184.711.943 1.393 1.922 2.149 2.855.245.303.143 1.175-.128 1.551-.657.911-1.506 1.684-2.278 2.512-.08.086-.2.153-.245.254-.42.965-.818 1.94-1.24 2.903-.55 1.25-1.124 2.487-1.667 3.74-.108.248-.15.535-.172.809-.074.916-.11 1.835-.19 2.751-.117 1.323.246 2.729-.672 3.92-.085.111-.057.31-.075.47-.037.317-.079.635-.103.953-.253 3.349.081 6.742-.929 10.037-.27.884-.119 1.907-.101 2.865.006.333.194.663.375 1.23ZM534.3 14.968c-.382-.277-.777-.45-.986-.752-.166-.24-.15-.642-.12-.963.013-.135.354-.22.404-.374.44-1.355.568-2.913 1.34-4.03.841-1.215.296-2.933 1.666-3.834.077-.051.135-.229.11-.323-.401-1.536.987-2.543 1.169-3.912.026-.198.412-.448.665-.494.505-.094 1.034-.082 1.553-.082 20.555.004 41.11.003 61.664.04 1.153.002 2.44-.42 3.423.787.24.297 1.07.085 1.622.165.762.112 1.734-.285 2.128.833.035.098.39.046.55.141.847.499 1.696.996 2.51 1.546.76.513 1.48 1.089 2.213 1.642.178.136.39.262.502.444.464.749.84 1.558 1.35 2.27.911 1.267 1.766 2.53 1.888 4.16.029.382.356.733.472 1.12.178.6.403 1.217.414 1.83.05 2.876.002 5.754.073 8.63.013.504.45.988.639 1.5.083.225.152.612.032.732-1.14 1.144-2.355 2.214-3.48 3.371-1.108 1.139-2.093 2.397-3.212 3.523-1.185 1.192-2.48 2.275-3.698 3.437-.762.727-1.44 1.541-2.206 2.264-1.466 1.386-2.672 3.095-4.742 3.744-.375.118-.602.646-.97.854-1.426.802-2.88 1.55-4.306 2.31 1.27.952 2.62 1.66 3.536 2.736.971 1.143 2.634 1.98 2.4 3.906-.02.15.004.373.1.457 1.475 1.29.661 2.968.746 4.482.018.326-.308.671-.475 1.008-.132.265-.33.518-.38.797-.159.892.106 1.863-.888 2.55-.303.21-.052 1.101-.256 1.598-.485 1.188-1.108 2.32-1.635 3.492-.142.316-.093.715-.213 1.047-.216.598-.623 1.154-.715 1.764-.171 1.12-.476 2.37-.138 3.366.23.68 1.144 1.577 2.309 1.397.156-.024.324-.02.478.011.661.133 1.855.208 1.885.435.131.97.655 2.141-.558 2.908-.157.1-.224.41-.254.633-.127.943-.225 1.777-.827 2.694-.753 1.148-.708 2.788-1.227 4.13-.54 1.394-.831 2.955-2.014 4.023-.23.208-.643.3-.972.301-8.038.015-16.076-.01-24.113.024-1.805.007-2.859-1.235-3.916-2.298-.948-.952-1.608-2.196-2.272-3.436-.871-1.626-.663-3.112-.698-4.675-.012-.544.417-1.1.651-1.646.045-.106.147-.192.176-.3.37-1.386.643-2.806 1.117-4.156.46-1.312 1.123-2.554 1.698-3.826.033-.072.09-.135.111-.21.396-1.413.762-2.835 1.192-4.238.15-.489.47-.923.68-1.396.122-.276.241-.576.258-.871.044-.758.006-1.52.042-2.278.097-2.012-1.435-3.138-2.478-4.516-.156-.207-.676-.187-1.028-.19-3.438-.019-6.877-.018-10.316-.029-1.198-.004-1.694.907-2.006 1.775-.523 1.458-.665 3.067-1.281 4.475-.78 1.782-1.064 3.805-2.027 5.402-1.09 1.808-.611 3.579-.804 5.365-.074.692.305 1.014 1 1.015.919.002 1.874-.116 2.746.096.814.199 2.042.629 2.192 1.195.262.982-.034 2.187-.339 3.228-.441 1.513-.975 3.026-1.697 4.42-.706 1.362-.547 3.038-1.681 4.232-.226.238-.23.754-.217 1.139.039 1.255-.66 1.708-1.782 1.72-1.64.02-3.28.024-4.919.025l-38.87.018c-.24 0-.494.048-.717-.012-.571-.156-1.603-.347-1.608-.548-.023-.802.268-1.615.462-2.42.024-.097.209-.155.238-.254.372-1.294.71-2.598 1.1-3.887.129-.422.377-.809.58-1.207.052-.102.177-.176.208-.28.437-1.491.94-2.969 1.268-4.484.256-1.18 1.041-2.027 2.26-2.054 1.24-.028 2.481 0 3.72-.053.793-.034 1.693.217 2.237-.725.092-.16.516-.17.788-.176 1.906-.045 2.947-1.372 4.027-2.664 1.003-1.2 1.472-2.636 2.078-4.047.79-1.835 1.396-3.709 2.04-5.585.455-1.328 1.129-2.58 1.66-3.884.146-.357.079-.797.201-1.168.188-.569.465-1.107.684-1.666.111-.284.21-.58.257-.88.138-.86-.12-1.75.798-2.471.64-.503.105-3.91-.482-4.58-.414-.474-.91-.946-1.114-1.511-.19-.526-.525-1.124.42-1.672 1.885-1.091 3.684-2.404 4.96-4.22.635-.902 1.007-1.992 1.477-3.006.582-1.257 1.143-2.523 1.712-3.786.048-.107.095-.216.127-.329.402-1.376.739-2.775 1.22-4.123.484-1.358 1.125-2.66 1.668-3.999.131-.325.098-.716.223-1.045.209-.545.486-1.064.73-1.596.08-.174.205-.353.21-.533a138.4 138.4 0 0 0 .077-4.19c0-.259-.081-.597-.255-.764-1.324-1.28-6.551-1.633-8.242-.559Zm30.866 20.992c.372.089.851.3 1.33.302 3.6.013 7.204.089 10.795-.091 1.1-.055 2.278-.684 3.216-1.34 1.084-.759 1.95-1.83 2.894-2.782.448-.452.97-.882 1.26-1.427.505-.948.855-1.979 1.276-2.972.045-.107.134-.196.188-.3.512-.974 1.41-1.933 1.454-2.928.1-2.296.741-4.623-.625-6.92-.853-1.435-2.044-2.09-3.365-2.17-3.268-.199-6.556-.088-9.835-.054-.366.004-.89.221-1.065.508-.636 1.045-1.274 2.118-1.69 3.261-.55 1.51-.892 3.095-1.324 4.648a1.95 1.95 0 0 1-.078.226c-.559 1.347-1.254 2.656-1.641 4.05-.374 1.348-1.514 2.47-1.208 4.017.012.057-.056.17-.113.194-.876.357-.65 1.16-.79 1.837-.118.575-.384 1.12-.68 1.941ZM279.455 177.948c-.78.892-1.714 1.945-2.632 3.011-1.278 1.485-2.65 2.905-3.783 4.494-.907 1.272-1.507 2.76-2.26 4.142-.422.773-.87 1.53-1.321 2.285a220.59 220.59 0 0 1-1.669 2.736c-.597.969-1.219 1.923-1.798 2.902-.37.624-.687 1.28-1.016 1.926-1.082 2.124-2.032 4.329-3.277 6.352-1.005 1.635-2.318 3.092-3.579 4.556-1.404 1.63-2.755 3.359-4.406 4.705-1.431 1.167-2.632 2.641-4.493 3.36-1.36.524-2.47 1.673-3.735 2.473-.681.43-1.43.914-2.196 1.019-1.796.247-3.25 1.42-5.194 1.406-12.675-.091-25.352-.028-38.028-.022-9.557.005-19.114.007-28.671-.014-.552-.002-1.581-.23-1.58-.342.012-.844.202-1.69.395-2.521.045-.192.411-.303.468-.498.413-1.43.728-2.89 1.185-4.304.499-1.54 1.255-3.007 1.652-4.569.666-2.625 2.683-2.59 4.705-2.643 2.278-.058 4.558-.164 6.834-.103 1.224.033 2.067-.653 2.636-1.411 1.142-1.525 2.124-3.2 2.958-4.916.616-1.27.855-2.717 1.33-4.061.5-1.408 1.096-2.78 1.613-4.182.15-.405.127-.871.264-1.283.14-.42.373-.81.58-1.204.052-.1.242-.183.232-.254-.221-1.568.872-2.772 1.153-4.201.195-.995.477-1.972.72-2.956.02-.077.08-.164.061-.228-.442-1.428-.732-2.935-1.4-4.249-.42-.822-.5-1.64.304-2.2 1.71-1.19 3.606-2.176 4.47-4.3.283-.695.97-1.221 1.46-1.835a1.58 1.58 0 0 0 .266-.507c.39-1.262.698-2.555 1.167-3.786.49-1.283 1.139-2.503 1.699-3.76.129-.288.211-.606.263-.918.246-1.501.847-2.841 1.773-4.04.025-.032.06-.068.061-.103.128-2.28 1.764-4.299 1.128-6.725-.224-.855-1.224-1.808-2.22-1.817-2.679-.027-5.359.005-8.037-.056-.54-.012-1.468-.245-1.528-.524-.117-.545.25-1.195.425-1.8.033-.11.133-.2.165-.31.424-1.491.785-3.003 1.277-4.471.475-1.419 1.093-2.79 1.629-4.19.141-.368.249-.76.305-1.15.284-2.003.986-2.668 2.961-2.67 21.834-.014 43.667.007 65.5-.08 1.884-.008 3.476.692 5.099 1.28.972.351 1.707 1.454 2.457 2.3 1.044 1.175 1.476 2.708 2.205 4.04.706 1.292.347 2.703.939 3.756 1.428 2.54.639 5.189.787 7.773.153 2.668.504 5.5-.19 7.993-.69 2.473-.17 5.03-.971 7.27-.628 1.758-.716 3.403-.751 5.14-.013.631-.158 1.392.713 1.728.135.053.14.426.218.647.207.592.42 1.183.678 1.909Zm-56.065 30.24v-.029c1.72 0 3.44.037 5.158-.012 1.328-.038 2.346-.841 3.327-1.616.903-.714 1.78-1.479 2.57-2.314.823-.871 1.608-1.802 2.263-2.803.594-.91.984-1.953 1.475-2.931.345-.686.731-1.352 1.06-2.045.557-1.178 1.178-2.337 1.6-3.564.472-1.38.748-2.825 1.125-4.238.037-.138.202-.237.272-.373.188-.364.496-.733.509-1.109.056-1.676.03-3.356.02-5.034 0-.234 0-.605-.133-.679-1.095-.613-.734-1.768-.993-2.67-.125-.437-.025-1.149.267-1.456.737-.773 1.665-1.358 2.471-2.071.82-.726 1.736-1.41 2.343-2.296a41.014 41.014 0 0 0 2.959-5.054c.553-1.124.786-2.405 1.16-3.616.07-.23.08-.493.204-.687 1.212-1.904 1.114-4.179 1.689-6.257.457-1.65.17-3.433-.738-5.13-.706-1.319-2.164-2.851-3.693-2.86-2.88-.016-5.759-.014-8.638-.015-2.087 0-2.674.551-2.88 2.636a3.305 3.305 0 0 1-.28 1.013c-.51 1.13-1.145 2.214-1.556 3.377-.528 1.493-.884 3.046-1.318 4.572-.021.074-.086.135-.114.208-.568 1.47-1.187 2.922-1.686 4.415-.46 1.376-.787 2.798-1.189 4.194-.039.137-.217.228-.291.361-.18.325-.47.657-.482.994a46.006 46.006 0 0 0 .015 4.074c.019.368.29.774.552 1.067.587.656.587 2.495-.16 2.764-1.817.653-2.41 2.401-3.507 3.685-.529.62-.803 1.453-1.213 2.177-.547.967-1.232 1.874-1.64 2.894-.5 1.244-.772 2.578-1.148 3.872-.044.15-.13.287-.19.432-.604 1.475-1.25 2.935-1.798 4.432-.436 1.19-.748 2.427-1.123 3.641-.02.067-.129.104-.161.172-.226.474-.499.935-.653 1.432-.427 1.382-.797 2.782-1.21 4.168-.038.128-.291.193-.327.32-.142.503-.354 1.035-.292 1.524.024.189.708.406 1.096.416 1.758.045 3.519.02 5.278.02ZM153.424 1.404c-.205 1.077-.486 1.879-.492 2.682-.086 12.877-.128 25.755-.224 38.632-.006.73-.4 1.453-.6 2.183-.073.265-.145.54-.149.812-.026 2.199-.052 4.399-.035 6.598.003.299.24.595.37.893.186-.213.387-.414.555-.64 1.142-1.528 1.423-3.381 1.988-5.137.48-1.491 1.214-2.899 1.805-4.355.29-.718.524-1.46.764-2.197.476-1.459.925-2.927 1.415-4.38.154-.456.403-.88.616-1.314.068-.138.2-.253.239-.396.393-1.468.69-2.968 1.18-4.402.486-1.42 1.18-2.767 1.747-4.16.32-.786.654-1.582.837-2.405.484-2.173 1.971-4.152 1.34-6.534-.098-.367-.488-.68-.79-.966-1.389-1.32-3.149-1.017-4.828-1.093-.41-.019-.811-.199-1-.248.598-1.767 1.117-3.42 1.72-5.04.493-1.332 1.104-2.62 1.626-3.941.158-.401.132-.878.3-1.273.552-1.308 1.108-2.619 1.77-3.872.168-.317.734-.6 1.118-.602 10.398-.033 20.796-.02 31.195-.041.955-.002 1.239.455 1.061 1.261-.24 1.09.051 2.31-.894 3.249-.253.25-.124.852-.264 1.262-.153.448-.408.862-.631 1.284-.053.1-.203.159-.23.258-.38 1.355-.72 2.722-1.125 4.068-.334 1.109-.66 2.237-1.172 3.265-.15.303-.918.339-1.415.42-2.292.378-4.673.47-6.855 1.18-1.461.475-3.172 1.092-3.749 3.038-.307 1.035-1.138 1.905-1.654 2.891-.352.67-.6 1.401-.836 2.124-.462 1.412-.868 2.841-1.328 4.253-.15.463-.392.897-.607 1.336-.05.101-.207.159-.236.259a262.806 262.806 0 0 0-1.093 3.886c-.062.23.019.544-.11.701-1.58 1.93-.963 4.173-.765 6.279.082.866.968 1.657 1.662 2.759-.842.681-1.747 1.458-2.699 2.173-.912.685-1.969 1.182-2.264 2.472-.089.386-.64.643-.856 1.028-.95 1.69-1.858 3.405-2.774 5.115-.074.138-.106.301-.147.455-.389 1.468-.37 3.293-1.268 4.313-1.084 1.234-.132 3.084-1.663 3.934-.047.026-.039.15-.059.227-.375 1.467-.66 2.965-1.154 4.39-.412 1.192-1.066 2.3-1.613 3.445-.051.107-.117.21-.148.324-.416 1.497-.816 3-1.247 4.492-.092.32-.31.6-.437.912-.183.448-.326.913-.503 1.364a56.064 56.064 0 0 1-.68 1.642c-.045.104-.167.18-.198.285-.37 1.27-.647 2.573-1.11 3.808-.686 1.83-1.426 3.65-2.32 5.383-.19.367-1.142.471-1.743.475-5.76.036-11.518.026-17.277.027-3.44.001-6.88.005-10.319-.005-2.192-.006-2.376-.17-2.366-2.293.022-4.959.057-9.918.13-14.877.006-.465.335-.919.471-1.39.118-.408.246-.833.25-1.252.08-9.318.137-18.636.216-27.954.02-2.28.102-4.557.156-6.836.004-.2.061-.419 0-.596-.207-.593-.456-1.17-.69-1.754-.168.555-.305 1.121-.515 1.66-.185.475-.45.92-.685 1.376-.053.102-.167.181-.194.286-.372 1.42-.652 2.868-1.121 4.254-.43 1.27-1.058 2.472-1.603 3.703-.064.144-.18.27-.222.42-.402 1.414-.517 3.003-1.261 4.203-.84 1.353-.414 3.118-1.669 4.236a.44.44 0 0 0-.116.205c-.37 1.344-.663 2.713-1.12 4.026-.44 1.263-1.047 2.469-1.585 3.697-.063.143-.19.261-.231.407-.417 1.498-.807 3.003-1.24 4.496-.102.346-.332.658-.523.973-.056.093-.244.131-.264.219-.377 1.674-.858 3.34-1.03 5.036-.052.509.656 1.386 1.21 1.606 1.32.524 2.61 1.38 4.17 1.022.304-.07.653-.068.954.007.5.125 1.369.294 1.393.52.082.745-.098 1.535-.27 2.286-.106.458-.384.876-.585 1.312-.203.437-.402.875-.612 1.309-.05.104-.173.181-.202.287-.387 1.401-.747 2.81-1.153 4.205-.124.427-.38.813-.554 1.228-.162.387-.365.777-.426 1.183-.324 2.185-.986 2.81-3.129 2.812-10.118.01-20.236.013-30.355.015-1.688 0-1.977-.278-1.716-1.97.133-.862.541-1.68.797-2.528.125-.418.139-.872.286-1.279.19-.525.463-1.02.7-1.528.083-.175.212-.343.24-.527.143-.945.194-1.805.863-2.705.716-.964.877-2.372 1.155-3.615.155-.688.47-.952 1.12-.955.84-.005 1.681-.071 2.518-.027 1.844.099 3.413-.47 4.816-1.677.54-.465 1.465-.243 1.813-1.256.307-.896 1.207-1.575 1.604-2.458.539-1.2.805-2.521 1.266-3.761.51-1.373 1.116-2.71 1.663-4.069.118-.293.137-.627.253-.922.247-.625.528-1.237.796-1.854.047-.108.113-.21.141-.322.397-1.566.52-3.274 1.247-4.666 1.059-2.027.69-4.085.806-6.153.072-1.286-.752-2.054-1.529-2.815-.44-.43-.478-.61 0-.982 1.37-1.067 2.758-2.118 4.046-3.279.62-.558 1.104-1.308 1.524-2.042.96-1.677 1.95-3.352 2.725-5.117.606-1.38.722-2.985 1.39-4.323.714-1.427.507-3.187 1.709-4.397a.247.247 0 0 0 .055-.105c.378-1.37.76-2.74 1.13-4.113.103-.384.105-.806.263-1.163.97-2.197.437-3.121-1.916-3.447-1.592-.22-3.174-.537-4.743-.888-.267-.06-.647-.524-.63-.778.057-.867-.235-1.884.777-2.474.1-.059.106-.286.148-.437.368-1.316.597-2.692 1.134-3.936.845-1.962 1.638-3.911 2.128-6.008.186-.793.85-1.525 2.055-1.52 13.437.043 26.876.054 40.313-.026 1.273-.007 1.587.872 2.077 1.25ZM418.44 186.534c-.26.835-.433 1.484-.664 2.113-.193.526-.45 1.029-.685 1.539-.031.069-.13.111-.15.18-.378 1.24-.706 2.496-1.133 3.718-.502 1.438-1.088 2.846-1.641 4.265-.028.072-.111.124-.133.196-.44 1.481-.817 2.984-1.33 4.44-.425 1.212-1.006 2.37-1.525 3.548-.046.106-.17.183-.2.29-.401 1.435-.734 2.893-1.203 4.305-.479 1.441-1.09 2.838-1.643 4.256-.085.22-.165.442-.242.665-.412 1.206-.796 2.424-1.257 3.61-.088.227-.462.439-.73.48-.668.102-1.35.136-2.027.137-25.237.017-50.475.027-75.713.036-.439 0-.892.028-1.312-.072-.346-.083-.916-.326-.923-.516-.02-.5.187-1.018.358-1.51.07-.199.404-.344.409-.52.035-1.145.378-2.13.96-3.148.45-.783.24-1.806.893-2.718.701-.983.969-2.358 1.154-3.603.159-1.064.486-1.963 1.28-2.623.318-.264.864-.342 1.309-.348 2.64-.036 5.285-.133 7.916.015 1.184.067 1.931-.609 2.455-1.236.84-1.004 1.993-1.801 2.281-3.314.192-1.005 1.005-1.893 1.54-2.833.04-.069.097-.132.118-.206.407-1.405.749-2.832 1.228-4.21.524-1.512 1.18-2.976 1.762-4.468a4.04 4.04 0 0 0 .217-.924c.098-.728-.045-1.513.8-1.99.198-.112.107-.678.222-1.01.218-.636.502-1.25.732-1.882.106-.292.2-.605.21-.911.04-1.119-.004-2.242.068-3.357.098-1.516-1.09-2.463-1.54-3.727-.092-.259-.112-.736.04-.858 1.38-1.115 2.86-2.11 4.192-3.276.598-.524.937-1.351 1.367-2.057.563-.924 1.132-1.848 1.637-2.804.408-.773.796-1.57 1.065-2.398.48-1.474.81-2.996 1.3-4.465.482-1.443 1.1-2.84 1.62-4.27.161-.443.214-.927.293-1.396.158-.94-.129-1.947.794-2.758.258-.226.017-1.272-.257-1.809-1.451-2.847-4.183-2.764-6.82-2.845-.6-.018-1.201.004-1.8-.019-1.16-.043-1.747-1.095-1.196-2.12.055-.103.097-.217.127-.33.438-1.616.518-3.474 1.408-4.78.901-1.324.233-3.11 1.618-4.129.112-.082.037-.39.097-.577.383-1.197.733-2.408 1.205-3.569.11-.27.635-.434 1-.521.419-.1.872-.08 1.31-.08 24.758-.004 49.516-.005 74.273-.006.48 0 .982-.078 1.435.035.57.142 1.517.377 1.568.69.12.742-.18 1.557-.344 2.335-.036.173-.265.3-.317.474-.394 1.32-.704 2.67-1.163 3.966-.48 1.352-1.1 2.655-1.655 3.98-.046.11-.083.224-.115.338-.428 1.528-.79 3.078-1.298 4.579-.466 1.377-1.097 2.698-1.633 4.053-.13.33-.134.71-.261 1.042-.212.556-.475 1.092-.72 1.635-.048.106-.136.198-.166.307-.38 1.363-.686 2.752-1.149 4.086-.461 1.33-1.083 2.602-1.625 3.903-.091.218-.125.46-.203.684-.407 1.176-.755 2.38-1.27 3.506-.143.31-.777.517-1.204.553-1.033.089-2.077.058-3.117.059-4.72.003-9.44.018-14.159-.017-.743-.006-1.485-.247-2.017-.342.267-1.107.446-1.952.682-2.781.1-.352.307-.676.488-1 .093-.165.3-.284.347-.454.39-1.423.708-2.867 1.137-4.278.452-1.482 1.001-2.935 1.512-4.4.025-.071.147-.147.132-.189-.397-1.16-.601-2.46-1.277-3.43-.584-.84-1.703-1.308-2.592-1.93a1.132 1.132 0 0 0-.441-.17c-3.432-.61-6.857-1.304-10.375-.937-.262.028-.661.099-.745.272a34.36 34.36 0 0 0-1.208 2.832c-.59 1.549-1.132 3.115-1.71 4.667-.421 1.13-.873 2.247-1.302 3.374-.244.64-.497 1.278-.697 1.932-.457 1.499-.873 3.01-1.331 4.508-.119.39-.373.738-.487 1.128-.166.571-.336 1.163-.33 1.744.001.132.718.366 1.106.368 3.6.022 7.2-.024 10.798.024.634.009 1.79.328 1.805.56.065 1.06-.18 2.142-.344 3.212-.017.112-.309.169-.35.292-.394 1.193-.75 2.399-1.145 3.591-.178.538-.42 1.055-.64 1.578-.046.108-.146.195-.179.305-.437 1.477-.762 2.998-1.33 4.423-.516 1.298-.85 2.753-2.001 3.69-.32.261-.888.299-1.344.302-3.84.03-7.679.035-11.518.03-1.064 0-1.892-.06-2.127 1.478-.21 1.38-1.1 2.656-1.687 3.98-.048.109-.075.228-.106.343-.397 1.457-.394 3.269-1.292 4.282-1.125 1.27-.34 2.935-1.585 4.144-.797.773-.807 2.349-1.194 3.557-.182.57-.42 1.121-.71 1.881.305.075.72.266 1.137.267 4.159.014 8.32.08 12.475-.072 1.003-.037 2.112-.652 2.937-1.3a28.692 28.692 0 0 0 3.856-3.686c.879-1.006 1.5-2.24 2.222-3.381.587-.93 1.179-1.86 1.712-2.82.206-.37.228-.839.384-1.243.203-.525.52-1.012.668-1.549a4.213 4.213 0 0 0 .13-1.6c-.014-.12-.673-.227-1.036-.227-4.079 0-8.158.02-12.237.037-1.835.007-1.918.583-2.763 2.054-.74 1.286-.407 2.85-1.562 3.99-.642.633-.77 1.805-1.084 2.75-.414 1.242-.755 2.51-1.181 3.748-.32.93-1.348 1.487-2.105 1.221-.856-.3-1.08-1.213-.464-1.87.18-.192.41-.375.5-.608.346-.898.664-1.81.957-2.727.413-1.294.755-2.612 1.2-3.895.643-1.859 1.225-3.758 2.094-5.51.335-.675 1.018-1.393 2.202-1.36 3.997.109 7.998.012 11.998.045.966.008 1.469-.21 1.75-1.268.373-1.4 1.083-2.71 1.619-4.07.144-.365.144-.787.282-1.157.195-.518.454-1.014.694-1.515.049-.104.167-.181.195-.287.384-1.433.681-2.896 1.155-4.299.58-1.717 1.168-3.462 2.039-5.036.343-.621 1.427-1.03 2.232-1.152 1.251-.188 2.552-.054 3.832-.043.276.002.63-.042.816.104 1.652 1.29 3.724.953 5.254.467 1.59-.505 3.074-.473 4.613-.546.455-.022.914.368 1.392.448.848.142 1.71.255 2.568.267 2.507.036 3.825-1.3 4.326-3.758.294-1.447 1.106-2.79 1.687-4.18.03-.072.087-.136.108-.21.375-1.326.683-2.675 1.136-3.973.473-1.355 1.095-2.658 1.631-3.991.132-.328.153-.7.282-1.028.25-.634.542-1.25.816-1.874.063-.144.145-.283.187-.432.367-1.3.355-2.957 1.177-3.817 1.19-1.244.183-3.146 1.673-4.082.026-.016.025-.074.035-.113.378-1.406.675-2.84 1.153-4.21.516-1.478 1.215-2.89 1.803-4.344.146-.36.082-.824.277-1.141.353-.578.743-1.213 1.287-1.562.287-.185 1.18.04 1.346.336.206.366-.03 1.002-.137 1.51-.033.158-.344.251-.392.414-.414 1.392-.744 2.81-1.204 4.185-.5 1.497-1.113 2.958-1.677 4.434-.056.147-.12.292-.175.44-.637 1.742-1.282 3.481-1.904 5.228-.118.334-.104.715-.228 1.045-.181.486-.428.947-.657 1.414-.05.103-.174.177-.204.282-.396 1.395-.726 2.812-1.185 4.185-.502 1.501-1.138 2.957-1.686 4.442-.46 1.244-.85 2.513-1.32 3.753-.537 1.423-1.134 2.823-1.689 4.24-.113.288-.228.61-.212.908.08 1.513-.734 2.577-1.808 3.432-.437.348-1.123.532-1.697.536-6.64.046-13.279.042-19.918.054-1.464.003-2.21.849-2.58 2.272-.448 1.728-1.176 3.384-1.784 5.07-.027.075-.076.143-.097.219-.409 1.457-.806 2.917-1.228 4.37-.094.326-.292.62-.404.942-.17.49-.34.986-.419 1.493-.01.07.528.357.764.31.574-.118 1.117-.54 1.676-.548 4.719-.06 9.438-.046 14.158-.074 1.248-.008 2.518-.137 2.92 1.25ZM234.895 37c.636.08 1.159.199 1.683.202 3.36.02 6.719.015 10.079.018q1.717.001 2.767 1.173c-.244.97-.413 1.761-.649 2.533-.12.393-.351.754-.55 1.12-.053.1-.214.151-.248.25-.376 1.131-.72 2.272-1.108 3.399-.207.6-.48 1.178-.725 1.765-.046.11-.112.212-.145.325-.44 1.532-.899 3.06-1.306 4.601-.382 1.447-2.099 2.817-3.612 2.82-3.64.01-7.281.078-10.918-.012-1.065-.026-1.725.488-2.112 1.195-.573 1.044-.806 2.267-1.283 3.372-.648 1.503-.625 3.26-1.75 4.583-.113.134-.098.373-.152.561-.383 1.355-.694 2.735-1.174 4.055-.466 1.28-1.125 2.488-1.666 3.743-.657 1.524-.06 2.43 1.588 2.433 3.28.006 6.566-.123 9.836.057 1.555.085 2.892-.467 4.012-1.149 1.778-1.082 3.635-2.194 4.576-4.342.574-1.31 1.76-2.338 2.513-3.587.575-.953.91-2.052 1.341-3.09.338-.813.747-1.609.97-2.453.256-.972-.184-1.276-1.23-1.254-4.038.086-8.079.047-12.118.06-1.714.007-2.543.816-2.736 2.472-.056.486-.424.936-.654 1.399-.052.103-.159.186-.189.292-.375 1.347-.666 2.723-1.13 4.038-.468 1.331-1.105 2.604-1.666 3.903-.158.365-.228.812-.487 1.076-.285.29-.733.531-1.125.557-.213.014-.668-.476-.654-.719.066-1.16-.587-2.492.705-3.408.104-.073.1-.291.155-.439.605-1.617 1.25-3.22 1.806-4.854.502-1.47.97-2.959 1.333-4.469.28-1.164 1.17-2.076 2.388-2.082 4-.019 8-.011 11.999-.018 1.273-.002 2.11-.78 2.467-1.97.542-1.807 1.231-3.57 1.834-5.36.139-.412.133-.873.277-1.28.16-.451.412-.87.635-1.297.053-.1.23-.195.216-.263-.35-1.602.958-2.731 1.187-4.185.173-1.094.669-2.14 1.042-3.199a.556.556 0 0 1 .338-.303c1.178-.286 2.356-.758 3.543-.783 4.237-.087 8.479-.05 12.718.013.84.013 1.693.563 2.51.497 1.636-.132 3.267-.456 4.862-.85.37-.09.635-.758.874-1.2.32-.595.599-1.217.834-1.85.15-.403.15-.86.285-1.27.177-.539.447-1.047.627-1.584.149-.443.184-.924.343-1.361.202-.556.477-1.086.726-1.625.032-.068.137-.123.137-.184.003-1.005.464-1.806.942-2.669.424-.766.332-1.705.876-2.59.763-1.242.862-2.876 1.354-4.305.506-1.472 1.149-2.897 1.72-4.347.1-.253.106-.544.212-.794.185-.439.41-.86.627-1.285.053-.102.212-.196.201-.278-.208-1.57.845-2.777 1.217-4.18.4-1.511 1.099-2.942 1.65-4.414.139-.367.177-.773.326-1.135.36-.874.664-1.796 1.19-2.563.19-.278.955-.246 1.44-.19.161.018.39.556.372.842-.056.868.263 1.882-.76 2.464-.056.032-.082.135-.102.21-.395 1.448-.706 2.925-1.203 4.337-.494 1.402-1.174 2.738-1.774 4.103-.048.108-.124.207-.154.318-.369 1.371-.344 3.1-1.194 4.026-1.096 1.194-.215 2.963-1.604 3.844-.056.036-.078.136-.098.211-.38 1.424-.674 2.878-1.157 4.266-.516 1.484-1.222 2.902-1.822 4.358-.305.74-.591 1.49-.831 2.254-.47 1.497-.888 3.011-1.36 4.508-.13.415-.374.794-.557 1.193-.126.273-.243.551-.355.83-.374.93-.627 1.939-1.17 2.756-.234.353-1.061.426-1.62.43-4.72.038-9.44.03-14.16.037-2.28.003-4.559.02-6.839.003-.748-.005-1.047.255-1.28 1.033-.433 1.453-1.127 2.828-1.71 4.237-.061.147-.123.295-.165.448-.403 1.458-.686 2.964-1.242 4.36-.351.881-.94 1.615-.93 2.67.008.946.257 1.25 1.22 1.24 5.16-.058 10.32.003 15.478-.116 1.142-.026 1.696.62 2.157 1.283.405.583.222 1.4-.585 1.812-.031.016-.06.059-.07.095-.377 1.238-.708 2.492-1.14 3.71-.515 1.459-1.117 2.887-1.683 4.328-.044.11-.113.211-.145.324-.428 1.496-.777 3.02-1.299 4.481-.418 1.172-1.043 2.27-1.578 3.401-.034.071-.1.131-.12.205-.39 1.397-.721 2.813-1.179 4.188-.492 1.48-1.102 2.92-1.663 4.377-.042.11-.127.205-.16.316-.43 1.486-.906 2.962-1.263 4.465-.308 1.295-1.227 2.128-2.651 2.134-4.6.018-9.2.024-13.8.025-20.718.002-41.436.001-62.155 0-2.617 0-2.65-.006-2.292-2.54.086-.605.47-1.169.72-1.75.03-.072.105-.128.125-.2.384-1.401.691-2.827 1.159-4.199.675-1.979 1.403-3.946 2.26-5.85.164-.363 1.029-.558 1.578-.574 2.317-.071 4.648-.18 6.955-.014 2.04.147 3.124-1.099 4.278-2.358.533-.583 1.005-1.22 1.508-1.832.05-.06.145-.098.169-.165.411-1.145.8-2.298 1.225-3.44.547-1.473 1.12-2.937 1.683-4.405.028-.073.086-.137.108-.211.442-1.492.614-3.147 1.393-4.434.825-1.364.389-3.119 1.626-4.274.187-.175.186-.6.191-.912.028-1.798.089-3.6.007-5.394-.025-.533-.4-1.107-.75-1.555-.487-.621-.311-1.574.252-2.102a93.933 93.933 0 0 0 4.6-4.618c1.033-1.113 1.46-2.56 2.055-3.943.78-1.814 1.412-3.642 1.983-5.522.433-1.424 1.134-2.766 1.715-4.144.015-.036.037-.072.045-.11.376-1.88.725-3.767 1.134-5.64.254-1.164-.345-2.064-1.117-2.612-.854-.606-1.962-1.014-3.007-1.157-1.535-.21-3.113-.147-4.672-.125-1.073.014-1.497-.505-1.3-1.47.194-.938.547-1.844.83-2.763.023-.076.058-.148.08-.224.43-1.577.803-3.173 1.31-4.725.459-1.409 1.052-2.775 1.612-4.149.254-.623.604-1.207.857-1.83.436-1.075 1.358-.873 2.197-.873 15.399-.005 30.798-.005 46.197-.007 9.759 0 19.518-.005 29.277-.002 1.987 0 2.028.047 1.74 2.031-.11.755.064 1.631-.843 2.1-.134.068-.12.435-.161.666-.152.854-.11 1.64-.8 2.471-.729.878-.775 2.305-1.187 3.467-.522 1.472-1.112 2.92-1.676 4.376-.057.145-.172.272-.212.42-.41 1.5-.731 3.03-1.233 4.499-.47 1.373-1.127 2.682-1.702 4.019-.047.107-.112.21-.141.321-.366 1.388-.64 2.807-1.114 4.157-.451 1.289-1.133 2.495-1.66 3.76-.196.47-.284.996-.345 1.505-.202 1.693-.813 2.296-2.51 2.3-5.64.011-11.28.015-16.92-.02-.53-.004-1.511-.302-1.51-.459.004-.874.23-1.75.424-2.616.035-.154.362-.236.409-.395.41-1.387.733-2.802 1.185-4.175a54.99 54.99 0 0 1 1.705-4.529c.36-.835.219-3.021-.428-3.731-.817-.897-1.634-1.794-2.49-2.652-.2-.2-.55-.264-.843-.352-1.043-.31-2.081-.815-3.138-.863-2.749-.123-5.507-.048-8.26-.026-.144 0-.365.215-.415.372-.396 1.253-.71 2.533-1.148 3.77-.45 1.27-1.006 2.504-1.525 3.75-.074.178-.235.326-.287.508-.426 1.499-.8 3.013-1.272 4.496-.165.52-.67.932-.83 1.452-.46 1.494-.799 3.025-1.238 4.526-.15.51-.459.973-.789 1.649ZM487.53 59.486c-.472-.055-.807-.129-1.142-.129-4.32.002-8.639.011-12.958.025-1.534.005-2.422.873-2.615 2.37-.068.533-.408 1.032-.633 1.543-.062.14-.188.26-.227.404-.392 1.468-.669 2.977-1.184 4.4a34.613 34.613 0 0 1-2.16 4.736c-.128.236-1.07.03-1.635.03.053-.882.046-1.774.184-2.642.073-.457.416-.867.609-1.31.266-.613.504-1.238.755-1.857.044-.11.105-.214.136-.327.424-1.535.76-3.1 1.288-4.597a33.925 33.925 0 0 1 1.96-4.48c.175-.332.942-.487 1.44-.495 2.8-.047 5.6-.024 8.399-.024 1.16 0 2.32.004 3.48-.005 1.588-.012 2.298-.694 2.576-2.25.103-.58.476-1.112.73-1.664.066-.142.181-.267.221-.414.376-1.38.352-3.113 1.204-4.06 1.1-1.223.199-3.049 1.662-3.965.175-.11.06-.62.163-.916.21-.597.517-1.16.705-1.762.15-.483.222-1 .26-1.507.073-.954.58-1.302 1.501-1.525 5.163-1.244 10.392-.348 15.584-.557.63-.025 1.296.548 1.91.488 1.837-.18 3.658-.533 5.483-.834.137-.022.328-.138.37-.255.43-1.202.672-2.503 1.286-3.598.753-1.342.514-3.052 1.691-4.193.055-.054.137-.14.126-.194-.3-1.538.748-2.708 1.141-4.05.394-1.344 1.054-2.608 1.59-3.91a4.38 4.38 0 0 0 .252-.783c.16-.79-.005-1.71.905-2.196.054-.028.07-.14.09-.217.385-1.457.745-2.922 1.163-4.37.12-.417.404-.789.625-1.175.056-.098.2-.158.23-.257.374-1.278.728-2.563 1.107-3.84.095-.323.25-.63.395-.937.156-.335.415-.645.481-.994.148-.787-.118-1.711.862-2.18.094-.044.088-.29.135-.44.408-1.287.714-2.622 1.287-3.831.184-.39 1.073-.446 1.877-.742-.066 1.47.495 2.683-.726 3.584-.058.042-.09.133-.111.207-.37 1.336-.68 2.692-1.12 4.004-.517 1.54-1.152 3.042-1.73 4.563a8.084 8.084 0 0 0-.325 1.019c-.353 1.507-.778 2.976-1.767 4.22-.133.168-.14.45-.167.684-.094.805.094 1.708-.829 2.21-.075.04-.083.214-.113.328-.39 1.47-.697 2.968-1.188 4.403-.49 1.43-1.208 2.778-1.742 4.194-.464 1.234-.762 2.53-1.221 3.768-.537 1.446-1.181 2.853-1.749 4.289-.128.325-.149.697-.193 1.051-.247 1.963-1.104 2.76-3.022 2.763-6.639.01-13.278.014-19.917.022-1.77.002-1.658.038-2.16 1.721-.438 1.476-1.18 2.859-1.756 4.296-.259.647-.493 1.314-.644 1.992-.419 1.886-1.671 3.535-1.582 5.555.017.398.18.79.208.902 1.07-.197 1.932-.485 2.798-.494 4.798-.054 9.598-.054 14.397-.03.503.002 1.43.263 1.435.426.025.814-.176 1.639-.337 2.452-.033.166-.3.28-.346.45-.4 1.437-.698 2.909-1.18 4.318-.42 1.231-1.036 2.395-1.567 3.588-.032.072-.089.136-.11.21-.441 1.497-.819 3.016-1.333 4.488-.49 1.402-1.12 2.755-1.69 4.13-.03.072-.094.131-.116.205-.381 1.327-.698 2.677-1.153 3.978-.477 1.365-1.087 2.683-1.639 4.022-.03.073-.078.14-.1.214-.445 1.536-.932 3.061-1.314 4.612-.282 1.143-1.13 1.947-2.373 1.953-4.639.022-9.278.028-13.917.028-20.717.003-41.434.003-62.151.004-2.602 0-3.461-.868-2.238-3.156.726-1.359.13-3.141 1.592-4.121.116-.078.087-.374.122-.569.302-1.69.852-3.285 1.75-4.758.354-.579.668-1.185.962-1.798.367-.765 1.03-.75 1.726-.75 2.44.002 4.882.051 7.318-.049 1.506-.061 2.761-.706 3.445-2.198.186-.404.579-.709.851-1.078 1.063-1.443 1.71-3.047 2.167-4.792.49-1.866 1.3-3.647 1.945-5.474.667-1.89 1.026-3.958 2.04-5.634.808-1.337.667-2.662.978-3.987.172-.729.722-1.41.742-2.123.041-1.403-.726-2.58-1.567-3.65-.466-.592-.353-1.517.2-2.038 1.614-1.522 3.649-2.56 4.752-4.689.618-1.19 1.406-2.272 1.836-3.591.407-1.25 1.144-2.39 1.633-3.618.48-1.203.812-2.463 1.242-3.687.189-.537.456-1.047.691-1.567.049-.108.148-.205.163-.315.338-2.482 1.708-4.81 1.164-7.41-.114-.548-.47-1.156-.903-1.503-.81-.65-1.56-1.465-2.776-1.444a61.87 61.87 0 0 1-4.796-.105c-.497-.03-1.358-.29-1.393-.54-.11-.782.065-1.614.192-2.417.03-.185.4-.304.456-.5.423-1.44.752-2.91 1.217-4.336.496-1.525 1.115-3.01 1.665-4.518.136-.371.26-.757.31-1.146.251-1.95.894-2.56 2.819-2.56C473.87.204 499.147.204 524.423.206c1.552 0 1.777.223 1.53 1.729-.274 1.668-.876 3.225-1.848 4.625a.676.676 0 0 0-.101.214c-.372 1.46-.673 2.942-1.128 4.375-.464 1.46-1.078 2.871-1.63 4.302-.07.184-.197.348-.25.535-.422 1.466-.5 3.173-1.334 4.341-.954 1.337-.413 3.039-1.619 4.267-.636.649-.708 1.859-1.014 2.822-.413 1.3-.757 2.626-1.223 3.907a55.04 55.04 0 0 1-1.81 4.388c-.135.289-.673.551-1.027.554-5.96.035-11.918.037-17.877.008-.413-.002-1.164-.285-1.175-.47-.032-.57.204-1.16.37-1.733.039-.13.324-.228.316-.327-.113-1.424.737-2.548 1.158-3.803.227-.675.517-1.328.763-1.997a3.52 3.52 0 0 0 .168-.69c.125-.832.12-1.599.801-2.366.463-.52.275-1.681.251-2.552-.022-.813.229-1.654-.77-2.306-.935-.61-1.6-1.63-2.392-2.46a.485.485 0 0 0-.316-.149c-2.095.038-3.884-1.473-6.078-1.111-1.207.199-2.474.025-3.714.023-1.833-.003-2.227.417-2.739 2.164-.406 1.388-1.078 2.698-1.628 4.045-.06.146-.093.303-.137.455-.443 1.537-.572 3.283-1.418 4.55-.84 1.258-.543 2.75-1.531 3.992-.867 1.09-.982 2.802-1.349 4.259-.237.943.054 1.464 1.213 1.444 3.598-.062 7.2.05 10.796-.06 1.11-.034 1.27.888 1.918 1.293.066.041.06.39-.01.431-1.007.588-.56 1.646-.843 2.46-.45 1.295-1.026 2.547-1.555 3.814-.044.107-.183.19-.194.292-.216 2.075-1.24 3.85-2.072 5.702-.378.84-.471 1.84-.97 2.582-.562.834-1.336 1.495-2.57 1.473-3.718-.065-7.438-.01-11.157.001-1.209.004-1.995.752-2.374 1.923-.485 1.498-1.126 2.945-1.7 4.414-.03.074-.06.148-.081.225-.438 1.556-.811 3.134-1.331 4.663-.439 1.29-1.061 2.516-1.571 3.784-.16.396-.186.843-.328 1.248-.214.615-.41 1.251-.732 1.81-.524.91-.146 1.819.88 1.823 3.959.017 7.923.106 11.874-.074 1.087-.05 2.113-1.001 3.208-1.432 1.273-.5 2.145-1.441 3.005-2.425.693-.793 1.743-1.299 1.852-2.563.028-.32.633-.55.81-.903a144.443 144.443 0 0 0 2.2-4.622c.526-1.145 1.016-2.306 1.59-3.613ZM58.877.206c8.038 0 16.075-.01 24.113.02.612.002 1.749.286 1.748.435-.004.816-.28 1.631-.482 2.443-.024.097-.206.152-.236.25-.422 1.363-.625 2.843-1.298 4.064-.723 1.312-.438 2.985-1.642 4.084-.19.173-.192.59-.218.9-.192 2.213-.739 2.772-2.907 2.868-1.317.059-2.66.244-3.95.072-1.765-.235-3.323.444-4.772 1.083-.993.438-1.665 1.72-2.348 2.717-.682.995-1.197 2.104-1.789 3.16-.038.068-.13.112-.152.18-.375 1.166-.72 2.342-1.122 3.498-.144.414-.428.779-.627 1.176-.133.265-.22.553-.344.822-.227.492-.469.976-.7 1.466-.082.174-.192.347-.22.53-.145.99-.474 1.905-.8 2.848-.717 2.073-1.2 4.399-1 6.55.113 1.22.29 2.906 1.509 3.962.454.393.06 1.475-.42 1.824-1.129.822-2.304 1.63-3.252 2.64-1.5 1.597-2.406 3.587-3.263 5.598-.459 1.077-1.195 2.032-1.726 3.083-.34.676-.557 1.418-.791 2.143-.463 1.433-.882 2.881-1.355 4.31-.171.519-.443 1.004-.676 1.501-.049.104-.164.186-.188.291-.37 1.684-.703 3.376-1.106 5.051-.138.573-.537 1.087-.652 1.661-.153.761-.415 1.678-.13 2.3.277.607 1.155 1.26 1.816 1.312 2.187.173 4.395.125 6.592.078 1.06-.022 1.485.417 1.364 1.412-.122 1.002.35 2.172-.858 2.897-.191.115-.063.692-.176 1.023-.205.597-.48 1.17-.73 1.752-.046.107-.157.199-.167.305-.082.818-.42 1.483-.815 2.225-.681 1.28-.932 2.81-1.246 4.259-.18.835-.538 1.283-1.4 1.291-.6.006-1.2.036-1.8.036-15.675.002-31.35.007-47.025-.018-.604-.001-1.686-.223-1.727-.474-.145-.9-.492-1.981.528-2.706.094-.066.25-.18.237-.242-.348-1.549.868-2.65 1.174-4.023.297-1.34 1.036-2.578 1.557-3.87.146-.362.25-.753.3-1.14.283-2.2.852-2.696 3.013-2.65 1.278.027 2.558.02 3.837.003 2.762-.038 4.733-1.535 6.378-3.558.933-1.147 1.28-2.726 2.05-3.82.9-1.28.182-3.022 1.586-3.945.135-.09.092-.45.13-.686.127-.784-.137-1.706.84-2.192.13-.065.077-.453.16-.672.282-.75.587-1.493.885-2.239.03-.073.078-.142.097-.218.385-1.579.765-3.16 1.15-4.738.074-.302.144-.607.248-.898.21-.59.57-1.158.637-1.761.097-.865.169-1.809-.079-2.618-.27-.881-.868-1.683-1.417-2.452-.401-.56-.393-.739.172-1.291 1.56-1.524 3.576-2.54 4.686-4.61.556-1.036 1.284-2.005 1.883-3.052.517-.903.645-1.764.932-2.666.395-1.24 1.047-2.397 1.59-3.588.05-.106.14-.196.17-.305.388-1.383.698-2.793 1.173-4.145.463-1.315 1.218-2.535 1.609-3.866.307-1.047.275-2.198.359-3.306.092-1.223-.828-1.723-1.58-2.485-1.135-1.152-2.4-.78-3.644-.852-1.315-.077-2.637-.008-3.952-.077-.67-.036-1.05-.333-.341-.946.116-.1.288-.194.325-.322.399-1.39.758-2.79 1.168-4.175.142-.478.39-.926.606-1.379.083-.172.266-.307.315-.484.385-1.383.51-2.907 1.192-4.119.575-1.02.913-1.985 1.036-3.103.016-.145.413-.323.651-.353.553-.07 1.116-.076 1.675-.076C43.123.205 51 .206 58.878.206ZM292.038 220.313c-5.52-.001-11.04.013-16.56-.023-.574-.003-1.633-.291-1.637-.468-.022-.867.222-1.744.41-2.61.035-.163.31-.27.358-.437.428-1.486.9-2.964 1.222-4.474.348-1.635 1.038-2.198 2.715-2.346 1.633-.145 3.325-.297 4.842-.853.956-.351 1.77-1.355 2.41-2.238 1.112-1.53 1.462-3.423 2.116-5.172.481-1.288 1.091-2.527 1.613-3.8.15-.364.154-.785.29-1.156.217-.589.502-1.152.73-1.737.113-.29.219-.602.23-.907.04-1.198.11-2.403.027-3.595-.036-.508-.442-.983-.64-1.488-.247-.631-.616-1.164.245-1.805 1.355-1.008 2.655-2.072 3.602-3.592.911-1.463 1.132-3.297 2.04-4.506.995-1.327.056-3.186 1.624-4.076.084-2.048 1.605-3.793 1.19-5.971-.205-1.082-.772-1.631-1.785-1.704-1.115-.08-2.239-.073-3.358-.047-.782.018-1.12-.314-1.039-1.072.12-1.117-.169-2.345.889-3.216.122-.1.082-.381.153-.564.725-1.871 1.407-3.763 2.236-5.588.155-.341.903-.567 1.385-.58 2.358-.069 4.72-.055 7.08-.056 8.68-.006 17.359-.005 26.039-.006.32 0 .665-.067.954.029.447.148 1.177.36 1.22.634.108.697-.043 1.455-.199 2.165-.091.416-.429.772-.59 1.181a229.528 229.528 0 0 0-1.68 4.404c-.137.37-.27.759-.3 1.147-.091 1.163-.759 1.569-1.841 1.558-1.64-.016-3.282.053-4.92-.012-1.097-.043-1.671.718-2.258 1.36-1.08 1.18-1.745 2.574-2.138 4.18-.318 1.301-1.253 2.44-1.693 3.726a28.504 28.504 0 0 0-1.213 4.855c-.192 1.25-.065 2.553-.03 3.831.012.47.13.95.273 1.402.133.423.625 1.025.499 1.183-.412.518-1.083.819-1.562 1.296a24.637 24.637 0 0 0-2.144 2.4c-.686.891-1.341 1.825-1.866 2.817-.448.845-.698 1.797-1.027 2.704-.306.844-.342 1.69-.924 2.553-.786 1.164-.858 2.808-1.245 4.243-.301 1.115-.788 2.212-.887 3.344-.175 2.002-.029 2.067 1.989 2.09 1.12.013 2.245-.059 3.357.033.485.04 1.294.33 1.345.617.128.714-.074 1.494-.191 2.24-.025.155-.327.257-.376.42-.443 1.486-.825 2.989-1.293 4.465-.3.947-.595 1.937-1.132 2.749-.24.36-1.07.449-1.635.454-3.92.037-7.84.02-11.76.02h-5.16Z"/><path d="M317.568 138.047c-7.039 0-14.078.025-21.116-.037-.757-.006-1.565-.42-2.247-.82-.625-.367-.335-1.579.429-1.804.56-.165 1.178-.186 1.771-.186 13.798-.02 27.596-.042 41.394-.014 1.393.003 2.264-.461 3.048-1.633 1.106-1.652 2.553-3.073 3.687-4.708.895-1.29 1.495-2.78 2.305-4.134.707-1.182 1.52-2.3 2.293-3.443.547-.81 1.104-1.613 1.659-2.418.875-1.268 1.779-2.516 2.62-3.806.775-1.188 1.475-2.426 2.223-3.632.905-1.46 1.483-3.103 2.8-4.335.611-.572.863-1.524 1.293-2.296.742-1.331 1.423-2.705 2.264-3.972 1.082-1.628 2.343-3.136 3.438-4.755.88-1.303 1.615-2.703 2.443-4.042.25-.405.602-.747.898-1.125 1.255-1.607 1.968-3.585 3.598-4.96.665-.56.9-1.6 1.471-2.309 1.82-2.262 3.696-4.48 5.572-6.697 1.144-1.352 2.266-2.732 3.512-3.986 1.004-1.01 2.141-1.903 3.29-2.754 1.287-.955 2.653-1.806 3.987-2.698.097-.065.22-.09.322-.15.433-.25 1.216-.491 1.227-.761.033-.823-.208-1.664-.392-2.486-.1-.447-.396-.863-.434-1.307-.078-.914-.043-1.838-.052-2.757-.016-1.553.671-2.81 1.658-3.943.098-.113.208-.272.205-.406-.027-1.192 1.02-1.742 1.533-2.609.46-.778.915-1.56 1.41-2.316.6-.913 1.268-1.78 1.853-2.702.467-.736.802-1.557 1.287-2.279.835-1.24 1.752-2.424 2.612-3.648.487-.694.9-1.441 1.399-2.126.483-.663 1.036-1.275 1.554-1.913.12-.148.233-.304.328-.47.41-.71.752-1.47 1.23-2.132a62.934 62.934 0 0 1 2.982-3.845c.742-.874 1.62-1.63 2.425-2.452.788-.803 1.523-1.663 2.35-2.423.854-.785 1.638-1.715 3.022-1.612.376.028.768-.403 1.179-.546.47-.164.97-.334 1.458-.34 3-.038 5.999-.023 8.998-.042 1.544-.01 2.114-.733 2.457-2.231.314-1.374 1.002-2.662 1.536-3.984.073-.18.256-.32.308-.5.405-1.417.51-3.011 1.255-4.213.84-1.36.431-3.126 1.681-4.25a.232.232 0 0 0 .062-.103c.374-1.242.733-2.488 1.127-3.724.124-.391.376-.74.507-1.13.21-.624.403-1.258.54-1.901.241-1.14 1.237-2.062 2.23-1.883.292.052.73.499.726.76-.01.819.328 1.8-.726 2.329-.118.059-.104.363-.172.547-.6 1.626-1.241 3.239-1.8 4.88-.502 1.476-.866 3-1.384 4.47-.49 1.392-1.101 2.742-1.661 4.11-.044.108-.117.206-.149.316-.385 1.318-.695 2.662-1.164 3.949-.492 1.35-1.092 2.666-1.741 3.948-.17.334-.687.676-1.061.695-2.273.111-4.556.045-6.824.204a89.812 89.812 0 0 0-7.396.845c-.61.094-1.209.642-1.687 1.11-1.357 1.325-2.704 2.67-3.948 4.101-.833.958-1.45 2.1-2.223 3.112-1.231 1.612-2.543 3.161-3.758 4.784-.517.69-.829 1.533-1.32 2.248-.85 1.24-1.794 2.415-2.645 3.655-.498.725-.856 1.545-1.34 2.281-.83 1.269-1.731 2.49-2.56 3.76-.494.76-.885 1.585-1.362 2.356-.56.906-1.197 1.767-1.731 2.688-.211.364-.34.839-.327 1.259.05 1.735-.534 3.53.77 5.144.558.69.879 1.696.974 2.593.056.527-.415 1.291-.88 1.65-.678.52-1.586.73-2.353 1.15-.901.493-1.756 1.07-2.632 1.608-.738.453-1.542.825-2.204 1.37a65.582 65.582 0 0 0-3.776 3.375c-1.246 1.198-2.468 2.429-3.612 3.724-.853.966-1.547 2.071-2.345 3.087-.77.979-1.581 1.924-2.378 2.88-.142.172-.422.315-.438.49-.112 1.193-1.117 1.763-1.731 2.605-.501.687-.917 1.435-1.403 2.133-.916 1.319-1.905 2.59-2.771 3.939-.813 1.264-1.495 2.612-2.259 3.908a17.311 17.311 0 0 1-1.039 1.52c-.88 1.185-1.817 2.33-2.653 3.545-.483.7-.768 1.533-1.223 2.256-1.208 1.92-2.495 3.792-3.682 5.724-.864 1.406-1.606 2.886-2.433 4.315-.223.386-.597.682-.834 1.061-1.084 1.739-2.126 3.504-3.218 5.238a192.705 192.705 0 0 1-3.004 4.587c-.187.278-.533.449-.72.727-.728 1.078-1.41 2.186-2.13 3.27-1.112 1.673-2.068 3.46-3.55 4.866-.136.13-.24.317-.3.497-.53 1.6-1.757 2.087-3.295 2.087H317.57v-.008ZM282.551 177.822c-.696-1.476-1.121-2.927-1.98-4.046-.888-1.158-.96-2.402-.521-3.45.965-2.302.368-4.749.952-7.022 1.485-5.789.857-11.633.654-17.46-.059-1.695-.52-3.414-1.05-5.04-.472-1.453-1.175-2.868-1.998-4.159-.577-.905-1.555-1.546-2.29-2.362-.212-.237-.202-.673-.293-1.018.649-.042.788-1.6 1.801-.599.209.206.489.416.764.466 1.154.208 1.709 1.032 2.214 1.962.313.575.726 1.095 1.06 1.66 1.228 2.078 1.419 4.504 2.19 6.687.925 2.615.585 5.125.708 7.675.126 2.632.007 5.277-.044 7.916-.007.36-.238.717-.373 1.073-.134.354-.359.695-.4 1.058-.09.793-.027 1.605-.14 2.393-.269 1.898-.618 3.786-.902 5.683-.082.55-.039 1.117-.07 1.676-.103 1.758.668 3.138 1.813 4.39a6.26 6.26 0 0 1 1.069 1.566c.539 1.17-.614 1.745-1.155 2.306-1.742 1.805-3.857 3.267-5.485 5.156-.864 1.002-2.169 1.835-2.361 3.41-.055.449-.665.805-.924 1.259-.72 1.264-1.34 2.588-2.092 3.834-1.158 1.92-2.431 3.772-3.58 5.698-.55.924-.884 1.973-1.392 2.925-.525.985-1.227 1.883-1.692 2.893-.362.785-.595 1.562-1.15 2.313-1.193 1.617-2.454 3.207-3.562 4.854-1.07 1.59-2.278 3.068-3.609 4.319-1.338 1.257-2.426 2.924-4.328 3.577-.538.184-.932.759-1.423 1.112-.85.613-1.713 1.21-2.592 1.782-1.229.798-2.479 1.564-3.716 2.35-.165.104-.287.294-.461.358-1.265.466-2.722.658-3.763 1.421-1.323.97-2.93.419-4.067 1.051-2.01 1.119-4.036.708-6.04.714-20.476.058-40.951.049-61.427.055-.679 0-1.377.059-2.03-.082-.35-.075-.895-.547-.868-.784.046-.396.409-.938.768-1.072.573-.214 1.252-.19 1.886-.19 21.275-.027 42.55-.045 63.825-.07.975 0 1.998.196 2.815-.61.124-.123.385-.191.565-.164 1.93.293 3.533-.888 5.33-1.219.955-.175 1.784-1.023 2.676-1.555.194-.116.43-.16.625-.274.805-.47 1.603-.95 2.398-1.436.224-.137.43-.301.642-.456 1.142-.836 2.287-1.668 3.423-2.513.18-.135.29-.43.478-.48 1.58-.421 2.314-1.81 3.337-2.866.368-.38.755-.745 1.089-1.154a298.1 298.1 0 0 0 3.024-3.767c.923-1.166 1.934-2.28 2.721-3.531.856-1.36 1.467-2.872 2.245-4.284.51-.926 1.147-1.78 1.69-2.689.402-.675.774-1.373 1.107-2.086.47-1.011.865-2.059 1.346-3.065.275-.572.646-1.101.994-1.636.745-1.144 1.63-2.196 1.96-3.587.09-.384.606-.65.858-1.018 1.103-1.601 2.062-3.3 3.516-4.646.543-.504.843-1.264 1.367-1.796.717-.725 1.548-1.338 2.32-2.01.548-.477 1.08-.972 1.548-1.396ZM186.753 46.717c-.422.247-.64.47-.883.5-2.176.28-4.196 1.437-6.486 1.112-.634-.09-1.388-.175-1.742.665-.042.1-.273.14-.424.172-2.174.441-3.555 1.845-4.465 3.761-.41.863-.418 2.133-1.062 2.626-1.422 1.09-.147 3.14-1.71 4.027-.05.028-.048.147-.068.224-.378 1.462-.665 2.958-1.163 4.379-.404 1.151-1.064 2.213-1.608 3.316a1.894 1.894 0 0 0-.136.33c-.412 1.503-.804 3.011-1.243 4.506-.1.34-.364.632-.548.949-.113.195-.286.386-.314.595-.13.951-.24 1.79-.861 2.701-.742 1.09-.759 2.65-1.212 3.965-.452 1.308-1.055 2.564-1.596 3.841-.046.107-.156.19-.188.3-.413 1.416-.794 2.841-1.235 4.248-.153.488-.46.926-.679 1.396-.112.241-.228.496-.262.755-.115.876-.2 1.63-.868 2.441-.613.744-1.18.838-1.891.847-2.76.033-5.519.012-8.278.012-3.12 0-6.278-.307-9.35.076-4.4.55-8.787.543-13.19.55-.495 0-1.005-.145-1.482-.301-.95-.311-1.385-1.059-.946-1.92.19-.371 1.017-.584 1.556-.587 9.839-.038 19.677-.032 29.515-.037 1.901-.001 2.425-.78 3.007-2.548.506-1.536.655-3.202 1.663-4.636.69-.984.763-2.385 1.189-3.573.523-1.463 1.126-2.897 1.696-4.344.029-.073.085-.136.106-.21.44-1.536.813-3.095 1.334-4.603.472-1.37 1.104-2.684 1.668-4.022.014-.035.062-.058.073-.093.375-1.246.702-2.508 1.133-3.734.514-1.467 1.117-2.903 1.684-4.35.028-.073.091-.134.113-.208.443-1.533.811-3.093 1.347-4.593.405-1.132 1.04-2.18 1.541-3.279.359-.784.51-1.629 1.286-2.232 1.142-.89 2.076-1.937 3.454-2.646 1.59-.818 3.151-.852 4.775-1.037.27-.031.694-.225.738-.415.081-.355.079-.9-.138-1.124a49.946 49.946 0 0 0-3.286-3.104c-1.582-1.364-1.952-3.818-.777-5.606.065-.098.12-.21.148-.324.397-1.646.704-3.32 1.211-4.931.388-1.233 1.028-2.386 1.557-3.575.048-.108.117-.21.15-.322.445-1.49.657-3.107 1.397-4.43.607-1.086.695-2.378 2.228-3.243 1.913-1.08 3.706-.646 5.538-.875 1.181-.147 2.4.035 3.593-.053.444-.033 1.1-.316 1.246-.66.383-.9.548-1.838 1.053-2.756.716-1.299.783-2.939 1.28-4.38.396-1.147 1.021-2.215 1.544-3.318.034-.071.075-.142.096-.217.446-1.576.825-3.177 1.367-4.72a3.689 3.689 0 0 1 1.25-1.67c.287-.207 1.32.008 1.38.217.156.537-.006 1.184-.12 1.773-.036.187-.418.299-.474.493-.417 1.463-.776 2.942-1.19 4.406-.122.428-.36.823-.555 1.229-.05.104-.208.194-.203.284.082 1.426-.712 2.579-1.18 3.831-.239.64-.51 1.268-.766 1.9-.045.111-.105.218-.136.332-.39 1.46-.872 2.905-1.13 4.388-.164.946-.731 1.054-1.42 1.067-1.76.033-3.52.017-5.28.02-.999.003-2-.024-2.998.015-1.326.051-2.12.801-2.354 2.12-.047.264-.15.521-.253.77a64.988 64.988 0 0 1-.697 1.615 70.849 70.849 0 0 1-.687 1.5c-.048.103-.169.18-.197.284-.373 1.386-.687 2.789-1.114 4.157-.37 1.185-.708 2.423-1.336 3.473-1.154 1.93-.952 4.654.614 6.113 1.624 1.513 3.21 3.066 4.811 4.604.587.564 1.167 1.136 1.84 1.791ZM216.167 95.307c-13.158 0-26.316 0-39.473-.002-.6 0-1.216.051-1.792-.071-.351-.074-.891-.423-.904-.67-.024-.464.17-1.025.46-1.399.655-.841 1.64-.789 2.61-.79 25.955-.039 51.91-.09 77.864-.14 1.963-.003 2.49-.579 2.964-2.519.313-1.283.986-2.48 1.5-3.714.03-.072.097-.131.119-.205.446-1.543.876-3.09 1.343-4.627.105-.348.329-.662.516-.981.076-.131.255-.22.293-.353.39-1.382.694-2.792 1.158-4.148.436-1.274 1.032-2.494 1.565-3.735.077-.18.23-.334.282-.52.406-1.42.795-2.846 1.193-4.269.073-.262.144-.527.248-.778.225-.542.472-1.075.708-1.613l.748-1.72c.046-.108.113-.21.144-.322.371-1.306.617-2.665 1.14-3.907.498-1.19 1.22-2.304 1.973-3.358.299-.418.988-.384 1.014.332.048 1.265.444 2.62-.652 3.707-.151.15-.196.428-.242.657-.173.863-.307 1.65-.813 2.495-.77 1.29-.897 2.95-1.41 4.412-.5 1.428-1.142 2.806-1.723 4.206-.015.035-.062.059-.073.094-.377 1.277-.7 2.573-1.14 3.827-.499 1.424-1.103 2.812-1.663 4.215-.029.073-.086.136-.108.21-.439 1.526-.81 3.075-1.332 4.572-.395 1.132-.979 2.199-1.485 3.292-.048.105-.179.178-.208.284-.398 1.436-.715 2.9-1.2 4.306-.334.971-.74 2.01-1.419 2.734-.41.437-1.402.446-2.132.448-13.358.024-26.716.017-40.073.017v.033ZM512.43 56.95c-.14.163-.403.34-.474.574-.402 1.345-.688 2.728-1.15 4.05-.467 1.338-1.093 2.62-1.648 3.929-.078.182-.16.365-.212.555-.41 1.508-.731 3.046-1.244 4.518-.467 1.338-1.187 2.584-1.706 3.907-.426 1.085-.684 2.235-1.079 3.334-.583 1.624-1.221 3.228-1.833 4.842-.07.186-.125.38-.179.572-.4 1.425-.72 2.879-1.216 4.27-.49 1.374-1.168 2.68-1.743 4.025-.36.846-.723 1.695-1.01 2.567-.267.806-.788 1.158-1.604 1.158-.48 0-.96.015-1.44.016-26.556.015-53.112.03-79.669.035-.55 0-1.127-.04-1.644-.208-.612-.197-.926-1.346-.445-1.681.68-.474 1.47-.98 2.259-1.068 1.338-.15 2.712.045 4.07.043 24.954-.044 49.908-.095 74.862-.145.32-.001.64-.02.96-.014.905.017 1.252-.417 1.498-1.311.465-1.692 1.181-3.314 1.766-4.974.144-.409.134-.872.282-1.28.177-.488.443-.945.677-1.413.034-.067.136-.106.156-.173.381-1.272.741-2.55 1.14-3.818.134-.427.356-.829.551-1.236.067-.14.218-.246.259-.388.415-1.437.745-2.903 1.238-4.312.504-1.441 1.213-2.81 1.742-4.243.47-1.276.806-2.6 1.226-3.895.125-.385.328-.745.512-1.107.103-.203.307-.375.35-.585.193-.933.248-1.805.877-2.71.725-1.043.766-2.54 1.24-3.786.235-.616.752-1.139 1.214-1.637.059-.063.636.218.836.455.262.311.388.737.581 1.133ZM614.087 1.656c1.005-.69 1.873-.614 2.767.252a.88.88 0 0 0 .516.224c1.237.079 1.77 1.035 2.545 1.807 1.35 1.345 1.533 3.287 2.705 4.684.046.054.054.152.057.23.093 2.867 1.617 5.542 1.08 8.51-.182 1.008-.043 2.073-.047 3.111-.005 1.543.968 2.616 1.779 3.778.155.222.234.726.097.885-.923 1.075-1.919 2.087-2.881 3.128-.628.679-1.23 1.38-1.858 2.058-.905.973-1.827 1.93-2.735 2.9-.767.819-1.5 1.672-2.295 2.464-1.214 1.211-2.479 2.372-3.7 3.576-.801.79-1.52 1.667-2.356 2.416-.686.614-1.525 1.056-2.23 1.652-.591.5-1.246 1.03-1.584 1.695-.4.786-.024 1.48.613 2.204.647.736.883 1.83 1.31 2.762.2.434.457.842.632 1.284.14.354.257.739.276 1.115.042.837.088 1.687-.01 2.515-.058.487-.387.943-.602 1.41-.048.103-.185.189-.189.286-.052 1.464-.246 2.86-1 4.19-.314.556-.045 1.398-.81 1.852-.193.114-.144.596-.256.89-.25.664-.644 1.295-.775 1.979-.2 1.041-.247 2.115-.285 3.178-.003.072.673.327.918.224 1.264-.531 2.5-1.133 3.724-1.753.329-.167.581-.483.87-.732.658.863.701 3.088.127 3.903-.241.343-.474.732-.563 1.133-.17.77.092 1.676-.898 2.139-.16.075-.12.593-.157.909-.088.751.168 1.606-.785 2.071-.175.086-.16.584-.209.895-.111.707.169 1.568-.786 1.937-.052.02-.078.134-.099.209-.387 1.438-.698 2.901-1.175 4.308-.502 1.477-1.172 2.896-1.745 4.35-.128.325-.115.706-.241 1.032-.144.37-.378.703-.56 1.059-.136.269-.323.539-.364.826-.337 2.34-.897 2.827-3.326 2.833-5.397.013-10.797.1-16.192-.004-1.706-.033-3.423-.501-5.09-.942-.499-.132-.844-.846-1.528-1.58.806-.121 1.375-.278 1.944-.28 6.638-.021 13.275-.02 19.912-.023 2.267-.002 2.884-.595 3.192-2.898.058-.436.43-.83.663-1.24.037-.065.162-.113.159-.163-.082-1.358.597-2.472 1.09-3.664.689-1.66 1.217-3.385 1.838-5.074.344-.934.804-1.83 1.092-2.779.275-.91.117-1.929.875-2.729.191-.202.03-1.14-.091-1.166-.506-.109-1.075-.067-1.589.056-.358.086-.637.487-.997.586-2.346.65-3.19.029-3.11-2.384.032-.988-.349-2.172.908-2.835.158-.083.085-.6.122-.917.08-.683-.134-1.49.766-1.83a.154.154 0 0 0 .08-.088c.366-1.157.705-2.324 1.103-3.47.179-.514.48-.985.712-1.483.097-.209.219-.435.221-.655.029-2.47.304-4.98-.058-7.392-.199-1.329-1.073-2.744-2.223-3.768a13.36 13.36 0 0 1-1.373-1.415c-.086-.104-.002-.508.13-.612 1.392-1.1 2.441-2.563 4.115-3.4 1.024-.512 1.7-1.694 2.583-2.523.822-.773 1.747-1.438 2.56-2.221.846-.817 1.6-1.727 2.414-2.579.759-.793 1.544-1.56 2.313-2.343 1.204-1.225 2.395-2.464 3.612-3.675.827-.823 1.79-1.534 2.495-2.446.329-.425.214-1.21.24-1.835.005-.101-.416-.188-.45-.329-.425-1.737-1.92-3.405-1.05-5.207.569-1.18.766-2.27.715-3.478-.016-.387-.301-.755-.416-1.146-.164-.553-.338-1.113-.408-1.682-.088-.712.092-1.496-.14-2.141-.388-1.075-1.01-2.064-1.54-3.086-.032-.06-.176-.083-.182-.133-.17-1.458-1.244-2.258-2.243-3.12-.264-.227-.47-.523-.738-.746-.615-.513-1.252-1-1.931-1.54ZM366.784 225.18c-13.518 0-27.035.001-40.552-.001-.743 0-1.597.18-1.604-1.023-.003-.617.146-1.012.856-.997.559.011 1.119-.03 1.679-.03 8.318-.005 16.636.003 24.954-.035.575-.003 1.142-.366 1.723-.523.412-.111.841-.222 1.263-.224 4.359-.015 8.718-.005 13.077-.008 12.437-.009 24.875-.02 37.312-.033.52 0 1.04-.018 1.556-.07.222-.023.56-.096.628-.246.431-.943.669-2 1.222-2.855.827-1.28.467-3.013 1.692-4.1a.346.346 0 0 0 .104-.208c.106-1.19.45-2.252.944-3.385.755-1.736 1.116-3.649 1.969-5.403.62-1.277.811-2.756 1.303-4.105.48-1.314 1.101-2.575 1.651-3.863.091-.214.16-.444.196-.674.141-.899-.094-1.856.869-2.571.342-.254.134-1.16.337-1.709.51-1.371 1.112-2.708 1.677-4.06.418-1 .76-2.043 1.295-2.977.206-.36.833-.561 1.302-.64.136-.024.534.615.553.965.043.8.24 1.707-.681 2.24-.058.034-.092.132-.113.206-.39 1.374-.714 2.77-1.176 4.119-.524 1.526-1.17 3.009-1.763 4.51-.058.148-.133.29-.178.442-.382 1.295-.411 2.904-1.224 3.81-1.066 1.19-.233 2.975-1.638 3.863-.07.045-.053.225-.084.34-.413 1.546-.742 3.12-1.266 4.627-.464 1.33-1.15 2.584-1.729 3.875-.064.143-.074.308-.116.46-.367 1.33-.449 2.858-1.189 3.932-.68.987-.583 2-.951 2.943-.397 1.017-1.112 1.933-1.807 2.797-.261.324-.854.525-1.3.533-2.879.05-5.759.035-8.638.036h-32.153v.042ZM348.853 42.978c0 2.28.115 4.566-.04 6.835-.104 1.534.539 2.805 1.132 4.039.295.613.99 1.458 2.085 1.347.75-.076 1.536.143 2.272.024 1.105-.178 1.589.681 2.29 1.173.096.067.088.503-.024.613-1.148 1.123-2.471 2.099-3.464 3.341-1.458 1.823-3.517 3.086-4.503 5.385-.702 1.638-1.482 3.187-2.048 4.923-.978 3.002-.471 6-.857 8.968-.15 1.152-.631 2.273-1.074 3.363-.079.193-.726.25-1.086.198-.221-.031-.574-.396-.564-.597.106-2.23-.413-4.46.508-6.704.517-1.26.26-2.836.373-4.268.07-.88-.214-1.873.777-2.487.118-.073.15-.368.138-.555-.13-2.073 1.22-3.605 2.208-5.124 1.073-1.65 2.791-2.876 4.185-4.329.283-.295.544-.798.495-1.162-.035-.26-.58-.578-.942-.647-2.465-.473-3.36-1.865-4.077-4.286-1.483-5.002-.557-10.047-.744-15.065-.035-.964.495-1.939.666-2.925.149-.86.014-1.788.261-2.609.451-1.497 1.066-2.948 1.668-4.395.26-.627.56-1.285 1.011-1.774 1.49-1.616 3.403-2.161 5.574-2.096 2.997.09 5.996.082 8.995.114 1.781.018 2.427-.735 2.833-2.455.376-1.596.686-3.275 1.739-4.643a.336.336 0 0 0 .06-.103c.37-1.24.689-2.499 1.12-3.717.521-1.467 1.138-2.9 1.714-4.346.029-.073.083-.138.104-.213.428-1.478.723-3.012 1.314-4.422.563-1.344.83-2.887 1.956-3.918.295-.27.988-.201 1.47-.119.177.03.426.581.373.84-.158.774-.457 1.518-.682 2.28-.113.38-.146.787-.281 1.158-.192.526-.441 1.03-.676 1.54-.048.103-.214.2-.2.275.288 1.544-.812 2.695-1.177 4.053-.366 1.362-1.08 2.631-1.642 3.94-.031.073-.08.14-.101.215-.432 1.52-.793 3.063-1.311 4.552-.394 1.13-1.047 2.17-1.47 3.294-.256.684-.358 1.445-.418 2.18-.139 1.687-.984 2.546-2.682 2.533-1.558-.012-3.256.294-4.642-.218-2.122-.782-4.233-.476-6.34-.717-1.526-.175-2.566.868-3.869 1.223a.473.473 0 0 0-.257.235c-.36.753-.952 1.494-1.01 2.272-.19 2.605-1.466 5.015-1.205 7.706.168 1.743.031 3.516.031 5.275h.034ZM71.465 44.725c-1.338.848-2.55 1.697-3.839 2.408-.888.49-1.896.755-2.82 1.187-.539.251-1.078.566-1.512.966-1.2 1.108-3.054 1.46-3.66 3.282-.208.626-.77 1.13-1.146 1.707-.228.347-.5.704-.592 1.094-.17.71.015 1.546-.89 1.931-.108.046-.12.36-.14.554-.067.648.085 1.354-.735 1.727-.18.082-.204.572-.248.882-.103.719.125 1.56-.785 1.958-.055.024-.094.13-.107.203-.193 1.124-.234 2.182-.928 3.292-.825 1.319-.905 3.094-1.38 4.649-.081.267-.57.635-.785.586-.38-.087-.982-.454-.987-.714-.022-1.155-.672-2.481.654-3.385.056-.039.083-.136.102-.21.364-1.493.642-3.014 1.111-4.473.453-1.406 1.098-2.75 1.667-4.118.367-.885.919-1.733 1.085-2.653.28-1.543 1.408-2.595 1.972-3.886.94-2.15 2.768-3.113 4.428-4.296 1.361-.97 3.04-1.485 4.471-2.375.316-.196.46-1.342.201-1.662-.687-.85-1.638-1.49-2.483-2.214-.06-.051-.137-.102-.164-.17-.794-2.002-1.838-4.149-.974-6.187.579-1.367.43-2.779.958-4.018.813-1.905 1.244-3.929 2.029-5.818.797-1.919 1.778-3.807 2.986-5.487.486-.677 1.374-1.415 2.646-1.341 2.67.153 5.356.044 8.036.028 1.2-.007 1.833-.702 2.18-1.836.433-1.423 1.08-2.782 1.632-4.168.073-.181.137-.365.206-.548.607-1.586 1.229-3.167 1.81-4.762.15-.407.116-.88.266-1.286.205-.558.514-1.076.757-1.621.11-.247.272-.534.231-.772-.195-1.14.449-1.97 1.13-2.654.305-.306 1.084-.14 1.648-.187.02.595.08 1.192.035 1.782-.013.164-.438.272-.498.462-.424 1.344-.78 2.711-1.208 4.054-.179.56-.481 1.08-.733 1.616-.032.068-.147.117-.148.175-.023 1.231-.46 2.288-1.015 3.398-.615 1.233-.51 2.861-1.229 3.994-.59.932-.603 1.91-1.012 2.788-.39.835-.854 1.76-2.172 1.713-2.636-.095-5.278-.039-7.917-.021-1.82.012-3.308 1.348-3.864 3.064-.341 1.052-1.063 1.982-1.617 2.964-.038.067-.13.11-.15.18-.366 1.203-.706 2.416-1.096 3.612-.134.413-.4.781-.59 1.178-.13.27-.31.55-.33.835-.1 1.435-.062 2.886-.248 4.307-.285 2.167 1.093 3.49 2.421 4.7 1.243 1.134 2.666 2.048 3.34 3.586ZM555.431 91.216c.78-1.613 1.472-3.013 2.128-4.43.13-.28.083-.638.192-.933.223-.601.495-1.184.75-1.773.048-.108.137-.201.166-.312.391-1.454.758-2.915 1.171-4.362.113-.393.365-.745.548-1.118.13-.267.4-.565.355-.802-.238-1.242.58-2.094 1.17-2.95.221-.321 1.122-.175 1.713-.243.005.643.12 1.31-.015 1.922a6.359 6.359 0 0 1-.825 1.991c-.844 1.336-.544 3.11-1.724 4.316-.185.188-.152.6-.202.91-.113.71.153 1.569-.794 1.948-.075.03-.102.206-.132.32-.364 1.35-.49 2.832-1.157 4.01-.565.996-.608 2.102-1.107 3.003-.388.701-1.086 1.453-2.22 1.421-2.515-.07-5.035-.022-7.553-.02-13.431.013-26.862.028-40.293.035-1.778.001-2.247-.56-1.734-2.14.1-.308.523-.62.859-.717.444-.13.95-.06 1.429-.06l45.809-.016h1.466ZM327.723 172.195c-1.079 0-2.158-.015-3.237.004-1.096.02-1.422.681-1.792 1.674-.553 1.487-.563 3.193-1.678 4.477-.156.18-.151.526-.165.798-.054 1.117-.002 2.247-.15 3.35-.167 1.242.591 1.971 1.322 2.686.747.731 1.626 1.328 2.45 1.982.6.477.502.76-.184 1.087-1.406.668-2.822 1.34-4.139 2.163-1.374.858-2.638 1.895-3.948 2.857-.093.068-.202.142-.25.24-.348.708-.769 1.396-1.002 2.141-.454 1.452-.734 2.96-1.212 4.402-.471 1.42-1.131 2.778-1.644 4.186-.215.587-.167 1.278-.419 1.841-.193.43-.636.978-1.03 1.034-.542.076-1.142-.264-1.717-.425.155-.517.3-1.038.472-1.55.046-.138.219-.238.256-.377.392-1.452.682-2.937 1.173-4.353.51-1.475 1.22-2.881 1.823-4.326.339-.814.583-1.67.965-2.463.37-.767.693-1.735 1.337-2.154 1.178-.766 1.715-2.394 3.473-2.432.677-.014 1.363-.588 1.998-.982.141-.088.212-.6.098-.737-.61-.737-1.33-1.385-1.931-2.129-.35-.432-.761-.98-.775-1.487-.045-1.63-.437-3.355.813-4.78.071-.08.07-.225.101-.34.395-1.503.623-3.078 1.227-4.492.751-1.76 1.445-3.662 3.314-4.646.33-.174.775-.175 1.167-.18 1.72-.02 3.438-.032 5.157-.006.789.012 1.116-.235 1.357-1.078.39-1.37 1.098-2.648 1.673-3.965.016-.035.063-.058.073-.094.373-1.285.696-2.588 1.127-3.853.476-1.395.96-2.815 2.09-3.848.154-.14.757-.095.83.04.274.499.464 1.061.574 1.622.039.197-.278.443-.374.69-.633 1.61-1.249 3.226-1.87 4.84-.029.075-.053.151-.074.228-.42 1.541-.663 3.162-1.314 4.599-.555 1.225-.875 2.666-2.054 3.539-.228.169-.604.183-.913.19-1 .023-1.999.009-2.998.009v.018ZM29.22 94.43c-8.44 0-16.877-.007-25.316.017-.567.001-1.203.116-1.686.39-.897.511-1.32-.263-1.896-.573-.193-.104-.389-.653-.3-.756a7.936 7.936 0 0 1 1.423-1.294c.188-.133.545-.03.825-.03l50.391-.026c2.182 0 2.81-.596 3.131-2.798.071-.487.439-.93.676-1.391.053-.104.169-.187.19-.293.204-1.039.287-2.01.936-3.027.768-1.204.739-2.888 1.236-4.3.586-1.668 1.316-3.292 2.111-4.871.135-.267.919-.294 1.39-.26.18.012.463.504.463.778 0 .868.172 1.698-.72 2.472-.55.477-.476 1.588-.948 2.413-.697 1.22-.808 2.762-1.289 4.124-.529 1.497-1.228 2.933-1.79 4.42-.452 1.194-.909 2.402-1.171 3.645-.157.742-.387 1.17-1.147 1.22-.557.038-1.116.08-1.674.081-8.279.005-16.557.004-24.836.004v.055ZM95.45 95.089c-5.678 0-11.356-.016-17.034.014-1.081.005-1.665-.347-1.677-1.489-.01-.918.313-1.408 1.317-1.4 2.4.022 4.799-.02 7.198-.021 8.997-.006 17.995-.005 26.992-.007 1.65 0 1.998-.696 2.747-2.086.727-1.35.306-3.104 1.65-4.146.029-.021.043-.067.053-.105.38-1.403.598-2.879 1.183-4.19.608-1.363.628-3.004 1.834-4.087.188-.168.475-.379.67-.34.181.035.436.385.427.586-.071 1.543.57 3.198-.751 4.563-.232.24-.128.776-.261 1.146-.218.603-.502 1.181-.76 1.769-.062.143-.15.277-.19.425-.365 1.341-.43 2.88-1.163 3.971-.707 1.052-.612 2.129-.982 3.143-.233.639-1.046 1.245-1.735 1.508-3.615 1.38-7.411.469-11.122.703-2.788.176-5.596.035-8.396.035v.008ZM292.656 225.182c-6.358 0-12.716.009-19.074-.013-.74-.002-1.768.204-1.666-1.078.025-.303.402-.762.688-.823.693-.15 1.426-.136 2.144-.137 8.517-.009 17.034.002 25.55-.035.573-.002 1.14-.36 1.718-.522.375-.105.764-.218 1.148-.222 2.239-.02 4.478-.006 6.717-.01 1.521-.002 2.623-1.011 2.96-2.49.39-1.701.685-3.456 1.822-4.889a.47.47 0 0 0 .067-.346c-.32-1.518.945-2.564 1.195-3.932.093-.51.818-1.168 1.334-1.249.407-.063.959.63 1.391 1.046.097.092.01.444-.073.643-.245.586-.479 1.186-.81 1.724-.869 1.415-.81 3.15-1.743 4.587-.664 1.021-.828 2.368-1.21 3.571-.447 1.408-.92 2.82-1.988 3.882-.27.269-.882.265-1.337.267-6.278.015-12.556.01-18.834.01v.016ZM155.387 41.113c-1.051-.697-1.533-1.41-1.51-2.486.075-3.514-.238-7.073.218-10.533 1.146-8.697.348-17.417.72-26.116.059-1.383.367-1.705 1.548-1.762 1.042-.05 1.513.325 1.477 1.438-.113 3.472.257 7.017-.319 10.405-1.201 7.063-.266 14.14-.698 21.194-.078 1.275.014 2.577-.214 3.822-.243 1.325-.772 2.597-1.222 4.038ZM405.588 153.905c-1.277-.658-2.521-1.031-3.404-1.812-1.67-1.477-3.555-.547-5.321-.799-.769-.11-.854.495-1.05 1.031-.527 1.442-1.103 2.866-1.66 4.297-.029.075-.06.149-.082.225-.432 1.558-.557 3.308-1.381 4.619-.792 1.259-.336 2.98-1.706 3.906-.318.215-.832.69-.906.627-.488-.408-.98-.88-1.267-1.436-.172-.333-.084-.9.074-1.285.466-1.143 1.025-2.248 1.548-3.368.05-.108.127-.207.159-.32.419-1.5.82-3.006 1.256-4.502.104-.354.32-.675.485-1.01.135-.273.31-.533.402-.818.39-1.192.74-2.397 1.145-3.583.06-.175.332-.375.522-.394 1.646-.165 3.163-1.58 4.988-.331.572.391 1.557.208 2.355.231 1.428.041 2.28.91 3.303 1.8 1.047.912.85 1.708.623 2.7-.035.157-.115.303-.083.223ZM247.906 19.184c.958 0 1.918.034 2.875-.007 2.042-.087 3.152 1.198 4.115 2.722.02.033.024.076.037.114.136.394 1.305.592.472 1.062-.589.332-1.897.298-2.304-.127-1.273-1.33-2.683-1.894-4.466-1.737-.556.049-1.119-.001-1.678.01-1.218.027-2.05.804-2.175 1.999-.084.808.034 1.658-.803 2.252-.223.158-.084.768-.206 1.14-.175.532-.435 1.037-.666 1.55-.03.068-.133.108-.154.175-.383 1.276-.716 2.567-1.146 3.826-.477 1.398-.868 2.868-2.12 3.831-.167.129-.65.15-.732.036-.388-.537-1.065-1.23-.95-1.698.355-1.444 1.024-2.812 1.572-4.209.029-.073.08-.14.1-.215.425-1.57.772-3.167 1.294-4.704.386-1.133 1.031-2.174 1.5-3.283.194-.46.33-.991.314-1.484-.032-.952.433-1.272 1.286-1.27 1.278.005 2.556.002 3.835.002v.015ZM478.24 34.985c.198-.838.303-1.564.542-2.242.545-1.553 1.155-3.083 1.741-4.62.042-.11.13-.205.16-.317.393-1.499.637-3.056 1.21-4.482.477-1.186 1.036-2.3 1.08-3.613.005-.17.551-.457.85-.46 2.794-.027 5.589-.005 8.383.003.74.964 2.536.685 2.719 2.307.008.078.03.162.07.228.255.411 1.236.82.492 1.248-.576.33-1.9.285-2.288-.142-1.95-2.147-4.437-1.795-6.803-1.56-.6.059-1.233 1.365-1.562 2.21-.519 1.334-.534 2.921-1.254 4.102-.58.953-.57 1.9-.876 2.832a32.716 32.716 0 0 1-1.874 4.565c-.655 1.294-1.64 1.167-2.59-.06ZM121.122 45.269c.95 1.517.87 4.754.113 5.878-.205.303-.218.73-.347 1.09-.232.649-.498 1.285-.723 1.936-.127.367-.17.762-.306 1.125-.25.672-.537 1.33-.812 1.993-.03.072-.108.127-.127.2-.373 1.415-.713 2.839-1.124 4.243-.155.527-.468 1.008-.714 1.508-.034.068-.124.115-.143.185-.378 1.358-.66 2.751-1.147 4.069-.529 1.432-.562 3.096-1.887 4.194-.594.492-.955.215-1.042-.314-.24-1.462-.587-2.97.529-4.28.075-.087.157-.186.187-.293.441-1.538.64-3.203 1.374-4.584.735-1.384.398-3.128 1.633-4.274a.454.454 0 0 0 .103-.212c.374-1.398.682-2.819 1.132-4.192.492-1.5 1.1-2.963 1.685-4.43.483-1.211 1.01-2.405 1.616-3.843ZM554.491 69.86l1.07-1.781c.04-.068.095-.132.115-.206.364-1.379.648-2.785 1.107-4.131.445-1.3 1.084-2.533 1.607-3.808.192-.468.364-.964.421-1.462.092-.797.449-1.284 1.269-1.289 2.596-.015 5.195-.067 7.788.03 1.02.037 1.508 1.039 1.78 1.857.297.894-.412 1.48-1.232.956-1.494-.953-3.077-.525-4.622-.662-.554-.049-1.119.021-1.677 0-.724-.03-1.115.204-1.383.972-.391 1.125-1.025 2.165-1.557 3.241-.035.072-.092.135-.113.21-.396 1.398-.75 2.81-1.194 4.194-.33 1.027-.706 2.054-1.216 2.998-.138.253-.947.401-1.258.237-.374-.198-.546-.78-.905-1.356ZM585.678 20.004c-.585.097-1.169.27-1.755.278-2.436.03-4.874.028-7.31-.002-1.119-.014-1.622.345-1.9 1.568-.28 1.238-.531 2.628-1.579 3.595a.733.733 0 0 0-.197.418c-.136 1.056-.243 2.01-.885 3.036-.768 1.227-.775 2.912-1.233 4.36-.133.42-.625.836-1.054 1.025-.713.315-1.232-.031-1.096-.839.2-1.188-.38-2.58.915-3.522.203-.148.074-.699.19-1.032.211-.608.493-1.191.741-1.787.09-.217.188-.433.252-.659.37-1.295.429-2.819 1.182-3.824.727-.97.562-1.983.964-2.874.31-.69.771-1.62 1.95-1.594 2.754.06 5.517.114 8.266-.029 1.317-.068 1.75.874 2.55 1.882Z"/><path d="M234.582 171.195c.11 1.738.342 3.186 1.917 4.258.61.414 1.107 1.417 1.11 2.154.002.54-.823 1.166-1.393 1.607-.68.525-1.55.811-2.216 1.35-1.008.817-2.032 1.667-2.83 2.677-.977 1.236-2 2.448-2.4 4.1-.344 1.423-1.086 2.748-1.655 4.116-.046.109-.134.203-.164.315-.398 1.46-.767 2.929-1.194 4.38-.123.418-.402.791-.619 1.18-.056.1-.186.172-.214.276-.383 1.394-.622 2.846-1.165 4.173-.569 1.39-.66 3.053-1.944 4.068-.336.266-.958.306-1.413.232-.228-.037-.557-.587-.523-.866.08-.67.343-1.32.546-1.974.032-.105.174-.178.204-.283.428-1.496.812-3.006 1.277-4.49.342-1.093.783-2.155 1.183-3.229.242-.649.472-1.303.743-1.94.172-.407.403-.79.617-1.177.056-.101.218-.192.209-.273-.18-1.52.807-2.702 1.171-4.063.467-1.745 1.157-3.386 2.399-4.76.48-.53.73-1.298 1.26-1.749 1.295-1.098 2.762-2 4-3.152.315-.294.215-1.302-.011-1.852-.408-.991-1.393-1.839-1.523-2.827-.19-1.458-.432-2.984.608-4.465.74-1.055.826-2.555 1.286-3.827.51-1.406 1.123-2.774 1.667-4.168.143-.367.16-.784.3-1.154.22-.59.494-1.16.748-1.737.047-.106.128-.2.159-.31.38-1.356.767-2.711 1.128-4.073.39-1.476 1.627-2.46 3.178-2.466 2.159-.007 4.323.09 6.475-.027 1.126-.061 1.61.77 2.184 1.318.704.674.04 1.745-.984 1.73-2.197-.028-4.397-.02-6.589-.15-1.08-.064-1.743.535-2.095 1.277-.576 1.214-.65 2.701-1.351 3.812-.845 1.339-.396 3.111-1.67 4.25-.205.183-.082.697-.196 1.029-.204.597-.471 1.172-.717 1.754-.03.071-.116.12-.137.192-.459 1.587-.912 3.176-1.366 4.765Z"/></svg>